<svg id="Layer_1" data-name="Layer 1" xmlns="http://www.w3.org/2000/svg" viewBox="0 0 680.489 386.617"><defs><style>.cls-1{fill:none;stroke:#888;stroke-width:.25px}</style></defs><path id="RU-MOW" class="cls-1" d="M88.568 176.3l-.485-.906-.57.774-.819.42-.248 1.348-1.875-.818-.88.854-1.223-1.34-.352 1.421-1.157.35.329 1.605.964-.724.734.913 1.57-.08.43-.966.528.876 1.109-.59 1.088.735 1.714-.145.264-1.113-.52-1.672.211-.657c-.51.066-.57-.093-.811-.285z" transform="translate(-1.044 -8.217)"/><path id="RU-SPE" class="cls-1" d="M92.689 123.54l-2.013-.672-2.683.671-.671 2.683.67 2.013 2.684 1.342 2.013-1.342 1.341-2.013z" transform="translate(-1.044 -8.217)"/><path id="RU-NEN" class="cls-1" d="M207.4 112.806h-3.354l-2.683 2.683.67 2.683 3.355.671h.67l.671-.67h.671l.67-.671v.67l-.67.671h.67l.672-.67v-2.684zm30.858 15.429l1.342.67v2.013l2.012 1.342 1.342-2.013-.67-2.012-.671-2.013v-1.341l-.671-1.342H239.6v1.342h-1.342v3.354zm-18.783-.67l-2.012-.672-2.684-.67-3.354.67.67.671v1.342h-1.34l-.672-.671v-.67l.671-.672-2.012-.67h-2.684l-.67-.671-4.025.67-4.025-.67-.671-.671v.67h-.671v2.013l-.67-1.341-1.342-.671-.671-.671-2.684 2.012-2.683 2.684-3.354-1.342-2.683-2.012.67-2.013.671-1.342-.67-1.341-.671-1.342 2.683-1.342 2.012-.67 3.355 2.012.67-.67.671-.672v-.67h.671v-4.025l-2.013-2.684-2.683-2.012-.67-2.013-.671-.67v5.366l-4.025 3.354-3.355 2.683v4.025l-2.683 2.013-1.342 1.342v2.012l2.684 4.025 2.012 4.025.671 1.342.67.67v.671h1.343v-.67l1.341-.671h1.342l1.342.67 1.341 1.342h4.696l5.367.671 1.342-.67.67-.671.671.67h2.683l3.355 2.684 4.025 3.354 20.125 12.075.67.67.671.671 4.025-.67 4.696-1.342v-.671l.67-1.342.672.671h.67l1.342-.67 1.342-.672 1.341-.67 1.342-.671.67-.67h1.343l1.297.505 1.386-1.848v-1.341l-.67-.671-1.343-2.013.671-.67.671-.671 1.342-1.342v-1.342l-2.013-3.354-2.683-2.683-3.354-2.683-.671-.671-.67-.67-.672.67-.67.67-.671-.67h-.671l-.67.67v4.026l-.672 4.025-.67-.671h-.671l-1.342.67-1.342-.67h-.67l-.671 1.342-2.013.67-.67-1.341.67-1.342 1.342-.67h.67v-1.342l-.67-1.342h.67l-4.695-.67-4.025.67-1.342-2.013-4.025-1.341-2.683.67v.671l-.67.671-.672-1.342h-1.341l-.67.671h-.672l.671-.67v-1.342l-1.342-.671h-1.341l.67-.67v-.672h1.342l1.342.671.67-1.342.672-1.341h.67l.671-.671v-.67h2.013z" transform="translate(-1.044 -8.217)"/><path id="RU-YAR" class="cls-1" d="M106.776 161.776l.67-.67-2.012-.671-.67.67.67.671zm4.696.671h-.671l-.67.671-2.013-1.342v2.684l-.671 2.013-1.342 1.341v-2.012l-2.012.67-.671-.67.67-.671h.671l-.67-4.025h-1.342l-1.342.67.671.671-.67.671-.671.671h-1.342v1.342l-.67 1.342v3.354l.67.67-2.013.671-2.012 2.684v2.683l2.012 2.012 2.684-.67 3.354-1.342 3.354 1.342 4.025-2.684 4.696-2.012v-.671l.67-1.342-2.683-3.354v-3.354l-2.012-2.013z" transform="translate(-1.044 -8.217)"/><path id="RU-CHE" class="cls-1" d="M173.859 239.593v2.012l-1.342 2.684.671.67.67.671h-2.682l-.671.67h-.671l-1.342-.67-.67 1.342-.671.67h-.671v-1.341l-.67-.67-1.343.67v-1.342l.671-1.341-2.012-1.342-2.013.67-.67.671v.671h-.671v.671l1.341 4.696v.67h2.684v.671l.67.671 4.025-.67 3.355.67-1.342 2.013-2.013 2.012-.67 1.342-.671-.67-.671-.672h-.67l-1.343.671h-1.341l-2.013 3.354-2.012 3.354-.671.671-1.342 1.342v1.342h-.67v.67l.67.671v1.342h.671l.67-.671 2.013.67 2.013 2.013-1.342.671-1.341 2.013h.67l2.684.67 2.683-.67.67-2.013v-1.342l.672-.67h.67l.671-.671h.671l2.683 1.342 2.013 1.341-1.342-2.683-1.342-2.013 1.342-1.341h1.342l-1.342-.671-1.342-1.342h.671l.671-.67.67-.671-.67-.671h2.683v.67l.671.671 2.013.671 1.341.671v.67l.671.672.67-.671h2.014l2.013.67v-1.34l-.671-1.342 1.341-.67v-1.342l-2.012-1.342-2.683-2.012 1.341-1.342.671-.67.67-1.343v-.67h.672l.67-.67h1.342l.671-2.684v-3.354l-.67-1.342v-.67l-.672-.672-1.341-.67h-.671l-.67.67-3.355-2.012-3.354-2.683v-.671h-1.342l-.67.67z" transform="translate(-1.044 -8.217)"/><path id="RU-ULY" class="cls-1" d="M121.534 220.81l-.67-1.342-2.684-.671v-1.342l-2.012-1.342-1.342-2.012-2.683 4.025-1.342-.67h-2.683l.67 2.683-.67 2.683.67 1.341v1.342l-2.012 2.684-2.013 1.341 2.013 2.684 4.025.67.67.671v.671l1.342-2.012 1.342-3.355h2.013l1.341-.67h.671l1.342.67h1.342l1.341 1.342 2.013 1.342.67-.671h1.342l1.342-2.012.67-1.342-1.341-2.013v-2.012l-.671-1.342h-3.354l-1.342-1.342z" transform="translate(-1.044 -8.217)"/><path id="RU-TYU" class="cls-1" d="M229.538 234.226l-2.684.67-.67.672-.671.67h-.671l-1.342-.67h-3.354l-.67-.671h-.672l-1.341.67-.671 1.342h-2.012l-2.013-.67v.67l-.67 1.342v2.683l-1.342.671h-2.683v-.67h-2.013l-1.341.67-1.342 2.683-.671 3.355v.67h.67l-.67.671h-1.342l-.67 1.342v2.683l1.34.67 1.343.672v2.683h2.012v.67l.67.672.672-.671.67.67 1.342 2.013.671 2.013.67.67 1.343.671h.67l.671 2.013 1.342 2.683h.67v-.67l.671.67v.67h.671l1.342.672 1.342 1.341.67 1.342h1.342l.67-.67v-1.343h.672l1.341-.67-.67-.67v-.672h.67l.67-.67-.67-.671.67-.671 1.343-.67v-.672l.67-.67h.671v-1.342l.67-.67h.672v-2.013l1.341.67 2.013-.67-.67-4.696v-.671h-2.013l-.67-.67.67-.672 1.342-.67v-4.025l2.012-1.342 2.013-1.342.67.671.671 1.342-.67.67v1.342h1.341l1.342.671 1.342.67 2.012 1.343.67-.671h1.343l4.695 1.341 5.367-2.013-1.342-1.341h-2.013l-.67-.671-.671-.67-2.013-1.343-1.341-.67v-3.355h-.671l-1.342-1.341.67-.671v-.67l-.67-.672h-.67l-.672-2.683-1.341-2.012-.671-.671h-.67l-.672-.671-2.012-.67h-2.013l-.67-.672-.671-1.341h-1.342l-.67.67-1.342 2.013z" transform="translate(-1.044 -8.217)"/><path id="RU-TUL" class="cls-1" d="M77.796 183.914h-1.073l-.201.67-.738.671h-.537l-.335-.67-1.61-.671-1.543-.671h-.202l-.268.67h-1.342l-1.14.672-.335.67-.47.671.47 3.354 1.476 2.684.738.67.67.671-.134 1.342.067 2.012 1.14 1.342.872.67h1.275l.268-.67.537-.67h1.073l.872-.671H78.4l3.287-5.367-.067-1.342 1.043-1.378h.659l-.696-.634v-.671l.01-1.351.027-.68h-.999l-1.424-2.02-.834.026-.939.67h-.67z" transform="translate(-1.044 -8.217)"/><path id="RU-SVE" class="cls-1" d="M206.73 201.355l-2.013-1.341-2.012-1.342v-2.012l-.67-.67v-.672l-1.342.671v.671l-2.013 2.683-1.342 2.684v1.341l-3.354 3.354-3.354 3.354-1.342.671-1.341.671-2.013 2.012 1.342 3.354-1.342 2.013v2.683l-2.013 2.013-3.354.67-.67 2.013v1.341h-2.013l-1.342-1.341-1.341 1.341-1.342 2.013h-3.354l-1.342.67v.672l-.67 2.012-1.342 1.342v2.012h.67l.671.671 2.684 1.342 2.012 1.342h.67l.672-.671h1.341v.67l3.355 2.684 3.354 2.012.67-.67h.671l1.342.67.67.671v.67l.672 1.343 2.012-1.342 2.013-.67 1.341.67 1.342 1.342h1.342l.67.67 1.342 1.342 2.013-1.342h3.354l-.671 1.342h1.342l.67-.67h-.67v-.671l.67-3.355 1.342-2.683 1.342-.67h2.012v.67h2.684l1.341-.67v-2.684l.671-1.342v-.67l-.67-.671v-7.38l-2.013-1.341-2.012-1.342.67-2.683.671-2.683v-1.342l-1.341-.67v-2.013l.67-1.342.671-2.683 1.342-2.684-1.342-2.012-.67-1.342-2.013-4.696z" transform="translate(-1.044 -8.217)"/><path id="RU-RYA" class="cls-1" d="M92.689 189.951l-1.342-.67v.67l-3.988-.04-1.379.711h-.657l-.684-.67-.671.67-1.342.67h-.939L78.4 196.66l.47 1.342v1.341h1.476l1.543.671-.202 1.342.269 1.342 1.341.67h2.013l.67 1.342.672.67h1.341l.671-.67 3.354 2.013h1.342l.538-.27.804-.401v-.672l.67.67h1.342l-.67-1.34-1.324-.37 1.323-.3h1.342l.67-.672 1.342-.67v-2.013l.671-.67v-1.343l-1.341-.67h-.671l.67-.672v-1.341l-2.683-3.354-2.013-2.684h-1.341z" transform="translate(-1.044 -8.217)"/><path id="RU-ORL" class="cls-1" d="M68.002 185.926l-2.683-.67-2.684-.671-.268.67h-.47l-1.476.671h-1.073l-.268.671-.201 1.342-1.61.67-.738 1.342.872.671 1.14.67v2.013l1.744.671 1.275.671.067 1.342.134 2.012.67.671.672.67-.201.672v1.341h1.006l.201.671h.47l2.214-.67.805.67.201-1.342-.067-.67.335-.671.403-1.342 2.817-1.342-.067-2.012.135-1.342-.671-.67-.738-.671-1.476-2.684-.47-3.354z" transform="translate(-1.044 -8.217)"/><path id="RU-OMS" class="cls-1" d="M253.017 251.668l-5.367 2.012-4.696-1.342h-1.341l-.671.671-2.013-1.342-1.341-.67-1.342-.671h-1.342v-1.342l.67-.67-.67-1.342-.67-.671-2.013 1.341-2.013 1.342v4.025l-1.341.671-.671.67.67.672h2.013v.67l.67 4.696-2.012.671-1.341-.67v2.012h-.671l-.67.67v1.342h-.672l-.67.671v.67l-1.342.672-.671.67.67.671-.67.671h-.67v.67l.67.672-1.34.67h-.672v1.342l1.342 2.013-.67 3.354v1.341h.67l-2.013 2.684.671 1.341.671.671.67.671h.671l.67-.67h.672v.67h.67v-.67l.671-.672v4.696l1.342-.67v-.671l1.342.67 1.341 1.342.671.671h1.342v.671l-.671.67-1.342-.67-1.341 2.013.67 1.341 1.342-.67 3.354 2.012h.671l2.683-1.342h2.013l1.342-1.341h1.341l.671-2.013.671-1.342.67-.67v-.671l-.67-2.013-.67-1.341.67-3.355 1.342-1.341-.671-.671v-1.342h1.342l1.341-1.341 1.342-.671h2.683v-1.342l-.67-1.342.67-1.341 1.342-.671v-1.342l.67-1.341v-.671l.672-1.342-.671-.67-.671-1.342.67-.671v-1.342l-.67-1.342v-2.683l-.67-.67v-.671h.67v-2.013h.67v-2.013z" transform="translate(-1.044 -8.217)"/><path id="RU-NGR" class="cls-1" d="M86.651 135.614v-.67H84.64l-1.342.67-.67-1.342-.94-.67-1.275.67H79.34l-3.354 1.342.47 2.683.67 2.013-.603.67h-.805l-.067.671-.134.671-2.013.671-.335 1.342-1.208 1.341.134 1.342.872 1.342.94.67 3.756 1.342 3.69.671 1.275 1.342h.67l2.013-.67 2.013-.672.67-.67.671-.671 2.013 1.341 1.341 2.013h.671l.671.67 1.342.671.67-.67h.671l1.342.67.67 1.342h.672l1.341.671v-4.025l-.67-.67h-.672v-.672h-.67v-1.341l.67-2.013-1.342-2.012-.67-1.342v-2.013l-1.342-1.341v-.671l-.671-.67h-2.683v-2.684l-.671-.67-.67-.672v-.67l-1.343.67-1.341.671-1.342-.67z" transform="translate(-1.044 -8.217)"/><path id="RU-LIP" class="cls-1" d="M78.4 196.66h-1.073l-.872.67H75.38l-.536.672-.269.67h-1.274l-.873-.67-1.14-1.342-2.817 1.342-.403 1.341-.335.671.067.67-.201 1.342-.805-.67-2.214.67.403 1.342 1.274 1.342 1.879.67 1.61.671v.671h-.067l.603.67h.805l.604 1.343-.201.67 1.677 1.342 1.811 2.013 1.275-.671 1.073-.671-.67-4.025 2.347-2.683 2.952-2.013-.269-1.342.202-1.341-1.543-.671h-1.477V198l-.469-1.341z" transform="translate(-1.044 -8.217)"/><path id="RU-KRS" class="cls-1" d="M58.543 191.964v-.671l-1.14-.67-.872-.672h-2.684l-.47.671-1.207-1.342-1.275 1.342-.67.67-1.208-.67-.201.67-.134.671-1.677 1.342 1.14 2.013 1.542 2.012-.2.67-.336.672h.335l.202.67h-.335l-.335.671 1.274 1.342h2.415l.604 1.342.738.67 3.153 1.342 4.025 2.013.603.67.604 1.342.94-1.342.737-1.341.872.67h1.007v-.67l.403-.671-.135-.67-1.274-1.343-.403-1.341h-.47l-.201-.671h-1.006v-1.342l.2-.67-.67-.671-.67-.671-.135-2.013-.067-1.341-1.275-.671-1.744-.671v-1.342z" transform="translate(-1.044 -8.217)"/><path id="RU-KGN" class="cls-1" d="M202.034 247.643h-3.354l-2.013 1.341-1.341-1.341-.671-.671h-1.342l-1.341-1.342-1.342-.67-2.013.67-2.012 1.342v3.354l-.67 2.683h-1.343l-.67.671h-.671v.67l-.671 1.342-.67.671-1.343 1.342 2.684 2.013 2.012 1.341v1.342l-1.341.67.67 1.342v1.342l3.354.67 3.355.672 1.341.67.671.671.67-.67.672-.671h1.341l2.013.67.67.671 5.367.671 5.367.67.67-.67.671-.67h.671l1.342.67.67-.67h.672l-1.342-2.684-.67-2.013h-.672l-1.341-.67-.671-.671-.671-2.013-1.342-2.012-.67-.671-.672.67-.67-.67v-.67h-2.013v-2.684l-1.342-.67-1.341-.672v-2.683l.67-1.342z" transform="translate(-1.044 -8.217)"/><path id="RU-KGD" class="cls-1" d="M20.507 116.16zm3.019-.67l.805-.672-.805.671-.738.671h.067zm6.641 2.012l-3.824-.671-.939-1.342-1.073-.67-.805.67-.67.671h.268l.737 2.013-1.542-.671-2.013-.671 2.818 5.366 3.22 4.696 1.878 2.684h.604l.737-.671 2.348-.671-.603-4.696-.202-2.012-.067-2.013-.335-.67h-.872l-.738.67-.738.671-1.208-1.342-.47-1.341h3.489z" transform="translate(-1.044 -8.217)"/><path id="RU-IVA" class="cls-1" d="M117.51 183.243l-1.342-.67-1.342-.672-.67-1.341-.672-1.342-.67.67-1.342.672-4.696-2.684-3.354-1.341-3.354 1.341.67 2.013-.67 2.683h2.683l.67 1.342.672 1.341 2.012 2.013h.67v2.012l1.343.67 1.341.672h.671l.67.67.672-.67 1.341-1.342 1.342.67 1.342.672 1.341-.671.671-1.342 1.342-.67h.67v-.672l-1.34-2.012h-2.013l.67-.67.671-1.343z" transform="translate(-1.044 -8.217)"/><path id="RU-BRY" class="cls-1" d="M57.068 174.522l-.671.671h-2.75l-1.275-.67h-1.409l-1.14-2.013-2.013-.671-.603.67-.201 1.342-.403.671h-.47l-1.006 1.342-1.073 1.342-.604 1.341h-.47l.537.671-.135.67h.403l1.677.672 1.275-.671.603.67.403 1.342 1.274.671 1.074.671 1.61 2.013.2 2.012-.871 1.342-.134 2.013 1.274-1.343 1.208 1.342.47-.671h2.683l.738-1.342 1.61-.67.2-1.342.27-.671h1.073l1.475-.67h.47l.269-.672-1.543-2.683.67-.67 1.074-1.343-.671-3.354-.402-2.683-2.348.67h-2.348z" transform="translate(-1.044 -8.217)"/><path id="RU-AST" class="cls-1" d="M77.394 253.01h-.872l-.738-.672-.135.671h-.134l-.536-.67h-.873l-1.14.67.671 1.342.403 2.012.805.671.536.671-.872.67-.603 1.342.2 2.013.672 1.342h1.744l1.408 1.341h-1.14l-1.476.671-.335 3.354-.269 2.684-2.414.67h-2.483l.134.671.671.671-.268.67-.201.672.67.67.47.671-2.28.671-.604 2.012.268.671h1.342l.47.671.47.67v.672h.67l-.133.67h.603l.403-.67 1.945 1.341.067.671h.067l.738-.67h.335l-.134.67.47-.67.67-.671.403.67-.067.671-.537.671-.268.67.805-.67.805-.67 1.878-1.343 1.946-.67.335.67-1.207-5.366h.401l.805 1.342h1.342l.67-4.696v-5.367l-1.341-1.342-1.073-1.341-.671.67-.671-.67.604-2.013 1.14-1.341-.269-2.013-.67-2.012 1.61-1.342-.671-1.342-.403-1.342-2.012-.67h-2.146z" transform="translate(-1.044 -8.217)"/><path id="RU-KHA" class="cls-1" d="M556.232 210.747l-1.342-1.342-.67-.67-.671.67-.671.671-.671-.67h-.671l-1.341 1.34-1.342 2.013-.671-.67-.67-.671-.672.67h-1.34l-3.354-1.341h-2.684l-.67 4.025v4.025l-.671.67-1.342.671v1.342l-.67.67v.672l-.671.67v.671l-.671 2.684 1.341 2.012.671 3.354.671 2.684 1.342 1.341.67 2.013-.67.67-1.342-1.341-.67.67v.672l-.672 2.683-3.354 2.012-1.341.671h-.672l-1.342-.67-.67 1.341v1.342l-.671.67-3.355 1.342-3.354 1.342h-1.341l-1.342 1.342-.67 1.341-.672 4.025-.67 2.013.67 2.683h-2.012l1.342 2.013 2.012 1.341-.67.671-.672.67v2.013l-1.341.671-.671 1.342h1.342l.67.67 1.342.671.67 1.342v1.342l-.67.67-1.342.672v2.683l-.67 3.354 2.683.67 2.012-1.34.671.67h.67l1.343-.67.67-.672 1.342.671.67.671h1.343l-.671 2.012-1.342 1.342v1.342l-1.342 1.342-1.341 1.341-.671.671-.67.671v4.025l-2.013 1.342v2.683l2.012.67h2.683l1.342 1.342 1.342 2.013h2.684l.67-.67 1.343-.672 2.683-1.341 1.342-1.342.67-1.342h1.342l2.013-.67.67-.671h.671l.598.2 1.414.47.671 2.013v2.683l.671 1.342v1.342l-.67.67h-2.684l-3.354.671.67 1.342v2.683l-1.34.671-1.343.67-.67.672-.671 1.341v1.342l-2.013 1.342-2.013 1.341.67 1.342v.67l-.67 1.342-.67 2.013v4.025l.67-.671.67.67v.671h.672l.67-.67.671.67v.671h.671l1.342.67v4.697l.67 2.012v2.013l2.684-1.342h.67l.672-.67.67-1.342h1.342l1.342.67 1.341-.67h1.342l.671.67 2.012 2.013h.671l1.342.67h2.012l1.342-1.34h2.683l1.342-.671.671 1.341.67 1.342-2.012 1.342-.67 1.341.67 1.342.671.67 1.342 1.343-1.342 2.012-.67.67v3.355l.67 3.354 1.342-1.341v-1.342l.67-2.013 1.342-2.012h.671l.67.67.672-.67.67.67v1.342l.671-.67.671-.671.67.67.672.671 3.354-1.341 2.683-2.013v-2.683l2.683-1.342 1.342-4.025h-2.683l-.671-.67v-.672l-.67-.67-.672-.672v-.67h1.342l1.342-2.013 2.683-1.342.662.553 1.35 1.46.671 1.342-.67 1.341v1.342l1.341.67h2.013l1.341-6.037 1.342-4.695v-.671l-.67-1.342v-2.683l-.672-.671v-2.012l-.67-2.013-.671-1.342-.67-1.341v-2.013l-3.355-9.391v-1.342l.67-3.354-.67-2.684.67-1.342-.67-.67-.67.67-1.343-2.012v-2.013h-.67l-.671-.67-2.683-1.342h2.012l.67-1.342-.67-1.342h-1.342l-1.341-.67-.671-.671h-2.013l-2.012-1.342v-.67l-1.342-.671h-.67l-.671-.671h-1.342l-.67.67-.672.671-2.012.671h-.67l.67 1.342v5.366l-.67-1.341v-2.683l-1.343 2.683-3.354 3.354v-2.012l1.342-2.683h-.67l-.672.67h-.67l-1.342-.67.67-.671.672-.67v-.672l-2.013 2.013.67.67v2.013h-1.34v.67l-1.343-3.353-2.012-3.354-4.696 2.012-3.354-1.342 1.342-2.012.67-1.342 1.342-2.012.671-2.013.67-1.341.672-.671 2.012-3.354.67-4.025.672-.671.67-.67v-.672l-.67-.67.67-1.342v-2.013l.671-.67 1.342-3.355 1.342-2.683.67-1.342v-1.341l.671-.671.671-1.342v-3.354l.67-2.683 1.343-1.342.67-5.367 3.354-4.695h.671l.671-.671.67-.671.672-.67 3.354-1.343 3.354-2.012h.67l.671-.67h.671v1.34l1.342.672.67-1.342-.67-2.013h2.683v-2.012l-2.012-2.013-2.684-1.341h-2.683l-2.012-.671v-2.683l2.012-.671-.67-1.342v-1.342h.67l-2.012-4.025-4.025-2.683-2.683.67-3.354.672v2.012l-.671 2.013z" transform="translate(-1.044 -8.217)"/><path id="RU-CE" class="cls-1" d="M50.292 282.526l-.268-.671-1.006.67-1.476.671h-.604l.537.671 1.476 1.342-1.41 2.683h-.133l-.269.671-2.146.67-1.879-.67.738-.67h-2.616l.201.67-.134.67h.94l1.072 1.343.336 1.341.134.671.738.67.738 1.343 1.409-.671h1.476l.738.67.268-.67h2.415l.67-1.342 1.14-2.012 1.678-.671 1.476-.67.2-1.342-.334-1.342h-2.281l.067-.671.201-.67h-.872l-.94-.672-.066-.67-.134-.671h-1.543l-.537-.671z" transform="translate(-1.044 -8.217)"/><path id="RU-UD" class="cls-1" d="M163.126 208.734l-1.342-.67-.67-.671v-.67l-.672-.672h-1.341l-1.342-.67-1.342-1.342-2.683 1.341-1.342 4.025-1.341.671h-1.342l-.67-.67h-1.342l-1.342 2.012-.67 2.683-.672.67h-1.341l-.671 2.684-.671 2.013.67.67h-.67l-1.342.671h.671l.671.671 1.342 1.342h2.012v.67h.671l.67.671 1.343-.67v-.671l-.671-.671 1.341-.67 1.342.67h-.67v2.683l.67-.67 1.342.67-2.013 1.342h-2.012l.67 1.342h.671l1.342 1.341.67 1.342 1.343.67 1.341-.67 2.013-.67 2.012-.672-.67-1.341-.671-2.013h-.671l-.67.671v-3.354l.67-.67h.67l.672-.672v-.67l.67.67.671-.67 2.683-6.038 2.013-6.038z" transform="translate(-1.044 -8.217)"/><path id="RU-SE" class="cls-1" d="M44.791 281.855l-1.006.67h-.805l-.537-.67h-.67l-.738.67-.403-.67-.537-.67-1.475.67-1.543.67-.604-.67h-.604l1.006 3.354.068 1.342 1.945.67 2.348.671h2.616l.537-2.012-.671-.671.738-1.342 1.073-1.341h.336l.2.67h1.477l-.269-2.012-1.677-1.342z" transform="translate(-1.044 -8.217)"/><path id="RU-MO" class="cls-1" d="M113.484 208.734l-2.012.671-1.342.671h-.67v-.67l-1.342.67-1.342.67-1.342-2.682-1.342-4.696-1.341-.671h-1.342l-.67-.67-1.342-1.342v2.012l-1.342.67-.67.672h-1.342l-1.323.3 1.323.37.67 1.341h-1.341l-.67-.67v.67l-1.343.671.671 2.013 2.013 1.341.67-.67.671-.671 1.342 2.683 2.013 4.025h1.341l1.342-1.342 2.012 2.013 2.684 1.341h2.683l1.342.671 2.683-4.025.67-2.683h-.67v-.67h-.671l-.67-.672.67-.67-.67-.671z" transform="translate(-1.044 -8.217)"/><path id="RU-KR" class="cls-1" d="M138.305 86.644l-2.683-3.355-2.013 4.696-2.683 3.354h-2.013l-2.012 1.342h-.671v.67l-.67.672-2.013.67-.671 2.013.67.67-.67.672-2.013 2.012-.67 2.683-2.013.671h-2.012l-.671 4.696-.671 5.367-8.72 1.341-9.392.671v1.342l1.341 2.012v-.67l.671.67h4.696l.67-.67.672 6.708-2.013 7.379h4.025l.67.67h1.343l-.671-1.34v-.672h.67l1.342 1.342 1.342 1.342h1.341l.671.67.671 2.684.67.67.672-2.012-.671-3.354.67-3.354v.67h.671l.671-1.341.671-1.342v2.013h.67l.672-2.013.67-1.341v2.012l.671-1.342.671-.67-.67 2.012-1.342 2.683h.67l.671-1.341v.67l1.342.671 1.341-2.683v-.67h-.67v-.672l-.671.671.67-2.012.672-2.013.67 6.038-3.354 4.696-.67 2.012-.671 2.683h1.341l1.342 1.342 2.013 2.013.67-.671.671-.671.444.444.227.227 1.342-2.013.67-2.012v-.671l1.342-1.342 1.342-1.341-1.342-2.013-.67-2.683 1.341-1.342.67-1.342.672-2.012.67-2.013.671.671.671.67 1.342-.67 1.341-1.342v-1.341l.671-1.342v-2.012h-1.341v-3.354l.67-.671 2.684-3.354.67-1.342.671-2.013h.671l.67.671 1.343-1.341.67-.671v.67h.671l.67-4.024-1.34-4.025h2.012l-.671-1.342-.67-1.342.67-.67h-.67l-.672-.671-2.012.67-.671-2.012.67-2.013-2.682-3.354z" transform="translate(-1.044 -8.217)"/><path id="RU-KL" class="cls-1" d="M73.637 254.35l-.67-1.34h-2.013v-1.342l-1.007-.671-.47 1.341-.872 1.342-2.482-1.342-3.286 1.342-.403.67 1.14.672h2.013l-.94 2.012-1.877 1.342-.134.67-.134.671H59.08l-.537 1.342-.738.671h-.268l-.335-.67-1.007.67-1.207-.67-2.08-4.697-2.885-2.012-1.81.67-2.416.671.47.671h.671l-.067.671.134.67.805-.67h.872l.201.67-.402.672h4.025l.604 2.012.536 1.342 1.006 1.342.805 1.341-.47 3.354.403 1.342.94 1.342 1.542 3.354.537 3.354.47.67 1.073.672 2.013 3.354 1.408 2.012h.738l.47.671.537-.67h.402l2.08-1.343 2.214-.67.47-.671h.67v-.67l-.47-.672-.47-.67h-1.341l-.268-.671.603-2.013 2.281-.67-.47-.671-.67-.671.2-.671.269-.67-.671-.672-.134-.67h2.482l2.415-.671.268-2.684.336-3.354 1.475-.67h1.14l-1.408-1.342h-1.744l-.67-1.342-.202-2.012.604-1.342.872-.67-.536-.672-.805-.67-.403-2.013z" transform="translate(-1.044 -8.217)"/><path id="RU-IN" class="cls-1" d="M47.475 283.867l-.537-.67h-.872l-.201-.671h-.336l-1.073 1.341-.738 1.342.67.671-.536 2.013-.738.67 1.878.671 2.147-.67.268-.672h.135l1.408-2.683-1.475-1.341z" transform="translate(-1.044 -8.217)"/><path id="RU-AL" class="cls-1" d="M301.987 322.105h-.67l-.671-.671-.671-.67-.67.67h-.672l-.67-.67-1.342-1.343-2.013.671-.67 1.342.67 1.342-1.341 1.341-.671-.67h-2.013l-.67-.671-.671-.671-.671 1.342-.671 1.341h-1.342l-.67.67-.671.672h-4.696l-1.342.67-.67.671-1.342-.67-1.342.67 1.342 1.342 1.341 1.342v2.683h-2.012l1.342 3.354 2.012 2.683.671 2.013.67 2.012.672.671h.67l1.342.67.67.672 2.684-.671 2.013-.67v.67l-.671.67 3.354 4.696h2.683l1.342-.67.67-1.342 3.355.67h2.012l.671-.67h.671l.67.67 1.342-2.012.671-1.341-.67-1.342v-.671h-.671l-.671-.67 2.013-1.342h1.341v-1.341l-1.341-.671v-2.683h-.671l-.671-.671v-4.696l-1.342.67-1.341.672-2.013-.671-.67-2.013v-.67l.67-.671v-2.013l1.342-.67 1.341-1.342v-2.013h-.67z" transform="translate(-1.044 -8.217)"/><path id="RU-BA" class="cls-1" d="M162.455 230.872l-.67-.67v-.672h-2.013l-2.013-.67-2.012.67-2.013.67-1.342.672-1.341-.671-2.683 1.342-2.684.67-.67-.67v.67l-.671.671.67.67v1.343l-.67 1.341-.671.671h-1.342v.67l-.67 1.343-1.342 2.683-.671 2.012v4.025l.67.671.671.671v.67l.671.672h.67l-.67 2.012v1.342l.67 1.342v.67h-1.34l.67 2.013.67 2.013h.672l1.341-1.342 2.013.67-1.342 2.013-1.342 1.342.671.67.671.671-1.342 3.354h.671l.67 1.342.672.671h2.683l1.342.67.67.672 2.684.67 1.342-2.683h1.341l.671-1.342v-.67h.67v-1.342l1.343-1.342.67-.67 2.013-3.355 2.012-3.354h1.342l1.342-.67h.67l.671.67.671.671.67-1.342 2.013-2.012 1.342-2.013-3.354-.67-4.025.67-.67-.67v-.671h-2.684v-.671l-1.342-4.696v-.67h.671v-.672l.67-.67 2.013-.671 2.013 1.342-.671 1.341v1.342l1.342-.67.67.67v1.342h.671l.671-.671.67-1.342 1.343.671h.67l.671-.67h2.684l-.671-.672-.671-.67 1.342-2.684v-2.012h-.671l-2.013-1.342-2.683-1.342-.67-.67h-.672v-2.013h-2.683v-.67l-.67-2.013h-.671l-.671-.671z" transform="translate(-1.044 -8.217)"/><path id="RU-AD" class="cls-1" d="M32.85 253.68l-.335-2.013-1.811.671-2.28-.67-1.074-1.342-.67-.67-.537.67.2.67.336.671 1.208 1.342 1.073 1.342h.402l.604-1.342h.738l.47 2.013-.201 2.012h-1.544l-1.543 1.342.135 1.342.2.67-.67.671h-.872l.134-.67-.268-.671h-.537l-.67.67-.269.671.805 2.013 1.342 1.341 1.341-.67.873-2.013h.603l.537-.67.872-1.342 1.476-.671-.201 1.341-.269 1.342h1.074l.335-.67.335-.671.403-.671.805-.671-.67-3.354z" transform="translate(-1.044 -8.217)"/><path id="RU-CR" class="cls-1" d="M3.221 228.556L4.984 226l-1.367-3.414-1.33-.745-.148-.894 3.074.154 3.217.649 2.162 1.812-.388-2.632 1.71 1.976.216.905 2.008 1.818.966 2.482-.78 2.02-.355 3.816 1.26.344.93-.133.278 1.147 1.233.27 1.638 2.168-1.988.026-.722 1.207-2.802-2.326-.645-1.597-1.539-.144-3.17-1.234L6.298 233l-2.798.083z" transform="translate(-1.044 -8.217)"/><path id="RU-SEV" class="cls-1" d="M3.5 233.083l-1.701-1.179-.609-2.423 2.03-.925z" transform="translate(-1.044 -8.217)"/><path id="RU-KO" class="cls-1" d="M210.084 145.006l-4.025-3.354-3.354-2.684h-2.684l-.67-.67-.671.67-1.342.671-5.367-.67h-4.695l-2.013 2.683-2.012 2.683-.671 2.012h1.341l.671.671-.67 2.013-.671 2.012.67 1.342v.67l-.67.671-.671.671-.67-.67-1.343-1.342h-.67l-.671.67-.671-.67v-.671h-.67l-1.343.67-.67-1.34-1.342 1.34-.67-.67v-2.013l-4.697-3.354-4.695-1.341v2.683l1.341 2.683v3.355l-1.341 2.012v1.342l.67 1.341-2.012.671h-1.342l-2.012 2.684-.671 2.683.67.67h1.342l.671.671h1.342v-.67l.67-1.342h2.684l.67-.67h.672l.67 1.34.671 1.343-2.683 2.683-3.354 2.683-.671 2.013-.67 1.341-4.026 1.342h-1.341l-1.342.67-2.013 3.355v2.012l-2.683.671-1.342 2.013 1.342 1.341.67 1.342v1.342l.672 2.013-.671.67v1.342l2.012-1.342 1.342-1.341h1.342v-.672l2.683 1.342 2.013.67 2.683-.67h2.012v.67l1.342-.67-.67-2.013 1.34-3.354 4.026 1.342h1.342l1.341 1.342-.67 1.341 2.012 1.342 1.342-.67 1.341 2.012 1.342 1.341 1.342-.67h2.683v.67h1.342l.67-.67h.671l.671.67 1.342-.67 2.012-.671 4.025 4.025 6.709.67v-.67l1.341-.671.671-1.342.67-2.012h1.343l.67-1.342-.67-.671v-.671l1.341-2.683 1.342-2.684 2.683-2.683 2.684-2.683.67-4.025.671-.671 1.342-.67.67-.672h.672l1.341-.67h1.342v.67l.67 1.342 1.342-.67 1.342-.672 1.342-.67v-.671l2.012-.67 1.342-.672h2.013l1.341.671 2.013-2.012 2.012-.671v-.671l1.342-1.342h2.012l2.684-.67h2.683l.671-1.342.67-.671 3.118-1.87 2.92-1.484-.67-2.012-1.343-2.013.671-2.683h.671l.627-.835-1.298-.507h-1.342l-.67.671-1.343.67-1.341.672-1.342.67-1.342.671h-.67l-.671-.67-.671 1.341v.67l-4.696 1.343-4.025.67-.67-.67-.671-.671-20.125-12.075z" transform="translate(-1.044 -8.217)"/><path id="RU-KIR" class="cls-1" d="M153.063 173.851l-3.354-.67-1.341 1.341-2.684 2.013-1.341-.671-1.342.67v1.342l.67.671h2.013l-.67.671-.672.67.671 1.343-1.341 1.341-.671 1.342-.671 2.012v2.013l-1.342.67h-2.683v.672l-1.342-.671h-.67l-2.013 1.341-1.342.671 2.013 2.684 2.012 2.683-.67.67-1.342.671-1.342.671-2.683-1.341-.671.67-.67 1.342-.672.67-.67.672.67.67.671.671.671 1.342h2.012l1.342 1.342.671-.671h.67l.672.67 1.341.671v.671l.671-.67h1.342v.67l-.671 1.342.67.67h.672v2.684l.67.67-.67.672-.671.67 2.012.671-.67 2.013v1.341h.67v.671h-.67l.67 2.013 1.342.67.67-2.012.672-2.683h1.341l.671-.671.67-2.683 1.343-2.013h1.341l.671.67h1.342l1.342-.67 1.341-4.025 2.684-1.342 1.341 1.342 1.342.67h1.342l.67.672v.67l.671.671 1.342.671.67-1.342 1.342-.67.671-2.013.671-.67-1.342-1.342v-2.013l3.354-2.012 2.013-2.684-2.683-2.012-2.684-2.683v-.671h-2.012l-2.683.67-2.013-.67-2.683-1.342v.67h-1.342l-1.342 1.343-2.012 1.341v-1.341l.67-.671-.67-2.013v-1.341l-.671-1.342-1.342-1.342 1.342-2.012 2.683-.671v-2.013l2.013-3.354-1.342-1.341-.44-.88z" transform="translate(-1.044 -8.217)"/><path id="RU-PNZ" class="cls-1" d="M103.422 214.101l-1.342 1.342h-1.342l-2.012-4.025-1.342-2.684-.67.671-.671.671-2.013-1.341-.67-2.013h-1.342l-.671.67-.67 1.343-.672.67.671.671v1.342l-1.342.67.671 2.013v3.354l-.67.671-1.342.67 1.341 2.013 2.013.671.67 1.342.671.67h1.342l.67.671.672.671v.671l2.012 1.342 1.342.67h.67v1.342l2.013-.67h1.342l1.341.67.671.671 2.013-1.342 2.012-2.683v-1.342l-.67-1.341.67-2.684-.67-2.683-2.684-1.342-2.012-2.012z" transform="translate(-1.044 -8.217)"/><path id="RU-TAM" class="cls-1" d="M88.664 204.71l-.671.67H86.65l-.671-.67-.67-1.342h-2.013l-1.342-.67-2.951 2.012-2.348 2.683.67 4.025-1.073.671-1.274.67.536.672.671.67-.335 1.342-.202.671 1.208.67 1.409.672.737 1.341.671 1.342h1.006l-.134.67.872.672 3.22-1.342 3.355-1.342 1.341-.67.671-.671v-3.354l-.67-2.013 1.341-.67v-1.342l-.67-.671.67-.671.67-1.342.672-.67z" transform="translate(-1.044 -8.217)"/><path id="RU-MUR" class="cls-1" d="M159.772 66.519v.335l-1.342 1.006-2.013-.805-1.341-.47-.671.537-1.342.738-.67-1.074-.671-.067-1.342-.201v1.342l-2.683 1.342-2.013 2.683v1.342l-.67 3.354-.671 2.683-2.013.671h-2.683l-4.025 3.354 2.683 3.354 2.683 3.354-.67 2.013.67 2.012 2.013-.67.67.67h.671l.671.671V92.01l.671-1.342v-2.683l1.342 2.683v.671h-.671v3.354h1.342l.67 3.354h-.67v.671l.67.671h.671v3.354l1.342 2.013 2.013 2.683 2.012 3.354 1.342 2.683 6.708 2.013 4.025-.671 3.354-1.342.671-.67v-1.342l1.342-1.342 1.341-2.012-.67-1.342-.671-.67.67-2.013.671-2.013h-1.341v-4.025l-.671-.67v.67l-.67-4.696v-7.378l-.672-1.342h-.67l.67-.67-.67-.672v-.67h-1.342l-.671-2.013-.67-1.342-1.343-.67-1.341.67-.671-.67 1.342-.671 1.341-1.342-1.341-.67.67-.672-.67-.67-1.342-.671h.67l.672-.67-.671-.672v-.67l1.341 1.341 2.013.671-.67-2.013-.672-2.683v.671h-2.012v.67l-.67-.67v-.67l-.672-1.343v-.67l-.67.67v.671h-1.342l-.671-1.945v-.067z" transform="translate(-1.044 -8.217)"/><path id="RU-LEN" class="cls-1" d="M88.664 114.818l-1.342.671.67.67.671.672h1.342l.671.67h-.67l-.672.671v.671h-.67v2.683l.67 1.342h1.342l2.013.67 1.341 2.684-1.341 2.013-2.013 1.341-2.683-1.341-.671-2.013.559-2.234-1.23-1.12-.67.67-.671-.67-.671-.67-.671-.672-.67.671h-.672v-1.342h-.805l-.47.671-1.006.671h.336l-.805 1.342-1.208-.671-1.14.67H76.32l.67 2.013.537 1.342.671 1.342.604 1.341-.47 2.684 1.006 2.012h1.006l1.342-.67.94.67.67 1.342 1.342-.67h2.012v.67l1.342.67 1.342-.67 1.341-.67v.67l.671.67.671.672v2.683H94.7l.671.67v.671l1.342 2.013v1.342l.67 1.341 1.342 2.013h2.013l1.342.67.67-.67.671-.671h1.342l.67-.67h-.67v-.672l.67-.67v-2.013l2.013-1.342 2.013-.67 1.341-1.342v-.67l.671-.672h2.013l1.341-.67-.67-.671-.671-2.684-.671-.67h-1.342l-1.341-1.342-1.342-1.342h-.67v.671l.67 1.342h-1.341l-.671-.671h-4.696l-.67-.67-1.342 1.34-2.013.672-1.342-2.013h-2.012l-1.342-.67-.67-.671h.67l.671-1.342.671-1.342 1.342-3.354 2.012-2.683v-2.013l-1.342-2.012v-2.013h-4.695l-3.354-.67z" transform="translate(-1.044 -8.217)"/><path id="RU-VLG" class="cls-1" d="M124.888 152.385h-.67l-1.342-.671v-1.342l-.67-.67h-.672v-2.684l.671-1.342.67-2.012.672-2.013-2.013-2.012-1.342-1.342h-1.341v.671l-2.013.67-2.683.672-.67-.671-.672-1.342h-1.341l-.671.671v.67l-1.342 1.343-2.012.67-2.013 1.342v2.013l-.67.67v.671h.67l-.67.67h-1.342l-.671.672-.67.67-1.343-.67h-2.012l-.67 2.012v1.342h.67v.67h.67l.672.672v4.025h2.012l2.683.67v4.025l.671-.67 2.013.67v-2.012l.67-2.013.671.671-.67 1.342v2.683l2.012 1.342.67-.671h.672l2.012 2.013v3.354l2.683 3.354 2.684-.671v-.67l.67-.672 2.013.671 2.012.671.671-.67.671-.672v1.342h.67l.672.67v2.013l2.683.671v.671l.67.67 1.342.672.671 1.341.671 1.342 4.696 3.354h.67l.671-.67 1.342.67h.67l.672-.67.67-.671 1.342.67.671 1.342 1.342-1.342-.671-1.341.67-.671.672-.671h-2.013l-.67-.67v-1.342l1.34-.671 1.343.67 2.683-2.012 1.342-1.342-.671-2.683-1.342-.67v-2.013h-4.025l-2.012-2.683-1.342-2.013-1.342.67h-2.012v-1.34l-1.342-.672h-.67l-.672-1.341v-.671l-.67-.67-.671-.672h-.671v-.67l-1.342.67h-2.012v-1.341l-.671-.671-.67-.67-.672-.672-.67-.67h-.671v-.671l-.671-1.342z" transform="translate(-1.044 -8.217)"/><path id="RU-KOS" class="cls-1" d="M126.23 171.168l-.67-.67h-.672v-1.342l-.67.67-.671.671-2.013-.67-2.012-.671-.671.67v.671l-2.683.67-.671 1.343v.67l-4.696 2.013-4.025 2.683 4.696 2.684 1.342-.671.67-.671.671 1.342.671 1.341 1.342.671 1.341.67-.67 1.343-.671.67h2.012l1.342 2.013 2.683 1.342h2.683l1.342-1.342.67-.67 2.013 2.012v1.341h1.342l2.683.671 1.342-.67 2.013-1.342h.67l1.342.67v-.67h2.683l1.342-.67v-2.013l.67-2.013.672-1.341-.671-1.342-1.342-.671-.67.67-.671.672h-.671l-1.342-.671-.67.67h-.672l-4.695-3.353-.671-1.342-.671-1.342-1.342-.67-.67-.671v-.671l-2.684-.671v-2.013z" transform="translate(-1.044 -8.217)"/><path id="RU-PSK" class="cls-1" d="M77.528 126.893l-.537-1.341-.67-2.013-1.476 2.013-1.543 1.341h-2.08l-1.074 1.342.47.67.336.672-1.007 2.012-.939-.67.269-.672.2-.67h-.402l-.134.67h-.671l-.537-.67-1.207.67h-1.274v.671h.268l-.067.671-.67 2.013-1.544 1.341-1.677.671.134.67.067.672-1.677 2.012-2.213 2.684h-.068l.068.67.536.671.671.67-.268.672-.067.67h.603l.872 1.342-.805 2.013-.536.67h1.006l.537.671h1.14l1.207 3.354v1.342l.336.67h1.408l.94 1.343 3.42-2.684.403-2.012v-1.342l.604-.67.604-.671-.336-.671h-.067l.94-.671 1.073-.67-.135-1.343 1.208-1.341.335-1.342 2.013-.67.134-.672.067-.67h.805l.604-.671-.67-2.013-.47-2.683 3.353-1.342-1.005-2.012.47-2.683-.604-1.342-.67-1.342z" transform="translate(-1.044 -8.217)"/><path id="RU-ARK" class="cls-1" d="M228.196 105.427v-1.342h-1.341v1.342l.67.67-.67 2.684 2.012-2.013v-.67zm15.43-14.759l-2.013-.67H239.6v1.341h-.67v1.342l-1.343-.67h-2.012v1.34l.67.672h-.67v.67l-.67.671-2.013 1.342-1.342 1.342-.67-.671v-.671l-.672-.67-1.341.67-1.342 1.342-.67 2.012v2.013h1.34v.67l.672-.67.67-.671v.67l-.67 1.342 1.341 1.342.671-.67-.67.67-.671 2.683.67.671.671 1.342h-1.341l-.671-.67v.67l-.671.67h-.67v1.342l.67 1.342h1.342l.67 1.342v1.342h1.342v-.671h.67l.672 1.341.67 1.342.671.67v-1.34l.671-.671v1.341l1.342 2.013v-1.342l.67.67h1.342l-.67-2.012-.671-2.012v-3.354l.67-3.354.671-2.684 1.342-2.683h.67l.672-1.342.67-1.341.671-1.342.67.67 1.343-.67v-.67l-.671-.672h.67l1.342.671.671-.67v-.671h-.67l-.671-.671 2.012.67v-1.342h1.342l-.671-2.012-1.341-1.342v-.67l-.671-.672h-2.013zm15.428-14.758l-1.341 1.342v.67h.67v.671l.671.671h-1.341l-1.342.67h.67l.671.672v.67l.671.671-1.342-.67-2.012-.671-.67.67.67 1.342h-2.683l.67.671v.671h-.67l-.671-.67v1.341l.67 1.342-.67-.671-1.341-1.342-1.342.67v1.342-.67l-1.342-.671-1.342.67-.67.672-.671-.671 1.341 2.012 2.684.671v.67h-4.025l-1.342.672v.67h2.012l1.342 1.342.671 1.342.67-.67v2.012l1.342.67.671-.67v.67l.671-.67 1.342-.671-.671-1.342v-1.342l.67 2.013h1.343l.67-.67-.67-1.343-.671-.67v-.671l1.341.67.671 1.342v.671l.671-1.342.67-1.341-.67-.671v-.671h.67v-.67h.672v3.353l.67-.67.671-.671 1.342-.671 1.342-2.013-.671-.67v-.671h.67v1.341l1.342.671.671-.67.67-1.342.672 2.012.67-.67v-1.342h.671v1.341l1.342-.67v-.671l.67.67.672-.67v-.67l-.671-.672h1.341l.671-.67-.67.67 1.341-.67 2.013-.671v.67l.67-.67h.671l2.013-.671h11.404l6.708-.67 2.013-1.343 1.341-2.012 1.342-1.342-.67-2.012-3.355-1.342-4.025 1.342v.67l-.67.671h-.671v-.67h-8.721l-2.013-2.013-1.341-.67-.671 1.34-2.013.672h.671v-.671h-1.342l-1.341.67-1.342-.67h-2.013l-1.341.67h-1.342v.671h-2.012v1.342l-.67.67-.672-.67-.67-.67-.671.67-.671.67-1.342.672v-.671l-.67-1.342zm33.542-49.038v-1.677l-1.342-.335-.67 1.409v2.012zm-7.38-5.97l-.67 1.677 2.012.336.671-2.013h-2.012zm7.38.269l2.012 1.14.671-.671-1.342-1.476-1.341 1.006zm-3.354 3.018v.537l1.341-.872h-.67zm-.671-5.366v-.537l-.67-.067v1.61zm.67.738l-.67.536v1.41l1.342-1.343v-.402zm4.026.067l.67-.537-2.012-2.214-.67 1.14.67 1.14zm-14.088 2.884v.47l.671.403.67-.94v-1.073l-1.34-.067zm.671-4.025l-1.342.873.671.805.671-.738zm-5.367-9.727v.872l.671.134v1.409l2.013-.067 1.341-.403.671-.134v.067l.671.134.67 1.678.672-.537v-1.476l-.671-1.408h-1.342l-1.342.134-.67-.067-.671-.135-1.342-.603-.67.402zm10.734 2.885v-.403l-.671.201-1.342.269-.67.268v1.543l-2.684.067-2.013-.537v.47l.671.604h-.67l-.671-.335v1.073h-.671v-1.14l-1.342-.201-.67.939v1.006l1.341-.067v.872l-.67.403-.671.402.67.201.671-.067.67.537.672-.604v.403l.67.067.671-1.006-.67-.738v-.067l2.012.2.67.672.672-.47 1.341-.403 4.025-.201-.67-1.409-1.342-.47v-.134l.67-.47.671-.067.671-.67v-.27h-1.342v-.47zm2.012-1.812l-.67.604.67.201 1.342-.268V9.7l-.671-.336zm24.15 7.111l1.342 1.208.67-1.074-1.341-1.274zm-5.367 10.331l1.342 1.275 2.683.134 2.013-1.744v-.134l.67-2.281-1.34-.67-.672 1.005-.67.873-.671-.135-2.013.269-1.341 1.408zm-9.391 4.293l-.671-.805-1.342 1.14 1.342 1.007zm0-5.366l-3.354-.403v3.556h.67v-.403l.671.067.671-.268-.67-.47v-.403l2.012.269.67-1.14zm2.683-.671l-.67.67v1.61l.67.135v-.067l.67-.067v.67l.672.94 2.012-.671 2.013-1.543.67-1.006v-1.074l-.67-.402h-1.342l-1.342-.872-1.341-.336zm-1.342-3.623l.671 1.007 1.342-.403-.67-1.006zm-1.341 1.745l-.671-.336-.67.738.67.201zm0-5.702l-.671-.805-.67-.671-.672-.671v-.671l-.67.201-.671.47.67 1.409.671 1.677.671 2.013 2.013 1.073zm1.341-.47l-.67-.805-.671.067.67 1.408v1.543l.671 1.208.671.134v-2.75zm2.013.134l.67-.805-1.341-.067-.67.738zm4.696 5.769l1.341-1.275-1.341-.603-2.013 1.073zM304 15.603l-.67.402v1.073l.67-.402zm2.683-4.964l-1.341-.269v-.201l-.671.067v.604l-.671.67 1.342.604 2.012-.872-.67-.604zm-5.366 2.146v1.946l2.012.335-.67-2.28zm-3.354 1.476v-.805l-.671.268v1.61l1.341.671h2.013l.67.134v-.134l-.67-1.811-2.013.604zm-128.8 105.253h-.67l-.671.67h-2.013l-2.013.672-1.341-.671-.671-.67-2.013.67h-2.683l-2.683 2.012-.67 2.684-.672 2.683h-.67l-.671.67.67-.67-.67-.67-.671-.672v.671h-.671l-1.342-.67-.67-2.013-1.342-2.013-1.342-.67-.67.67v-.67l.67-.671h1.342l-.671-3.354-2.013-2.684-1.341.671-1.342.671-.67 5.367h.67l1.342.67-1.342 2.013-2.012 2.012-.671-.67h-.671v.67l-1.342-2.012-1.341-2.683-1.342 1.341-1.342.671-.67-.67-.671-.671-.671 2.012-.671 2.013-.67 1.341-1.343 1.342.671 2.683 1.342 2.013-1.342 1.341-1.341 1.342v.67l-.671 2.013-1.342 2.013-.67-.67-.672.67-.67.67-.671 2.013-.67 2.013-.672 1.341v2.684h.671l.67.67v1.342l1.343.671h.67l.671 1.342v.67h.671l.67.671.672.671.67.67.671.672v1.341h2.013l1.341-.67v.67h.671l.671.671.67.671v.67l.672 1.343h.67l1.342.67v1.342h2.013l1.341-.67 1.342 2.012 2.012 2.683h4.025v2.013l1.342.67.671 2.684 3.354.67.67 1.342 1.343 1.342 1.341-.67h1.342l4.025-1.343.67-1.341.672-2.013 3.354-2.683 2.683-2.683-.67-1.342-.672-1.342h-.67l-.671.671h-2.684l-.67 1.342v.67h-1.342l-.67-.67h-1.343l-.67-.671.67-2.683 2.013-2.684h1.342l2.012-.67-.67-1.342v-1.342l1.341-2.012v-3.355l-1.342-2.683v-2.683l4.696 1.342 4.696 3.354v2.012l.67.67 1.342-1.34.671 1.34 1.342-.67h.67v.67l.672.672.67-.671h.671l1.342 1.342.67.67.672-.67.67-.671v-.671l-.67-1.342.67-2.012.671-2.013-.67-.67h-1.342l.67-2.013 2.013-2.683 2.013-2.683-1.342-1.342-1.342-.671h-1.341l-1.342.67v.672h-1.342v-.671l-.67-.671-.671-1.342-2.013-4.025-2.683-4.025v-2.012l-3.354 2.683.67-1.342-.67-.67-.671-.671-.67.67.67-.67 1.342-.671-2.684-5.367z" transform="translate(-1.044 -8.217)"/><path id="RU-YAN" class="cls-1" d="M289.913 112.806v-.671h-1.342l-3.354 1.342v2.012l2.683.671 2.013-.67v-2.684zm8.72 16.77v-2.683l.671-2.012v-1.342l-.67-.67-.671 2.012-.671 3.354-2.013 2.012-3.354.671-.67.67h-.671l-.671 1.343-.671.67-.67.671-.672.671v.67l.671.672v.67l-.67 1.342.67 2.683v2.684l-2.012 2.012-1.342 1.342-.67 2.012-.672 1.342-.67 1.342v2.683l-.671 1.342-.671 2.012h2.012l.671.671.671.67 1.342-.67h1.341l4.025 2.683 2.012 4.025v.671l-.67.671.67 2.013v2.012h-1.341l-2.013 1.342-.67 2.012 2.683 2.684 2.012 1.341h-1.341l-1.342-.67-1.342.67h-.67v-2.012l-.671-1.342v-.67l.67-1.342v-1.342l.671-.67.671-.672h-.67v-.67l.67-.671V165.8l-.67-1.341v-2.684h-7.38l-1.342 2.013-.67 1.342v2.012l-1.342 4.696-1.342 1.342-2.012.67-.671 2.013-1.342 1.342-2.012.67-2.013 1.342-1.342-.67-.67.67-1.342 2.013h-2.013v-.671l-.67-.67-2.684-.672-2.012-1.341-1.342-.671-.67-1.342-.671-2.012v-2.013l2.683 1.342 3.354 1.342-.67.67h-1.342v.671l2.012 1.342h2.683v-1.342l.671-1.341h.67l1.343-.671.67-.671h.671v-1.342l2.684-1.342 2.683-1.341.67-2.013v-1.341l2.013-1.342 1.342-2.013-1.342-2.683-.67-4.025 2.012-3.354 1.341-3.354 1.342-4.025.671-.67.67-.672 2.013-4.025-.67-3.354v-3.354l2.683-2.683 4.025-6.709v-2.012l-1.342-2.013-3.354-1.341-1.342-.671-1.341-.67h-.671l.67-.672h-.67v-.67l-3.354 4.024-3.354 4.696-5.367 4.025-4.025 2.012h.671l-.67 1.342h-.671l-.671 1.342h1.342l.67.67-1.341 2.013-1.342 2.683v1.342l-.67 1.342-.672-.67h-.67l-1.342 1.34-.671 2.013v.671l.67-.67h.672l.67 1.341.671 1.342h.671v1.341l-.67.671v3.354l1.34 1.342v.67l-4.024 4.697h-1.342l.671-.671v-.671l-.67-.67-.672-.672-.67-4.695-.778.076-.113-.452-.302-.452.766-.021-.276-.733-.639-.43.375-1.114-1.717-2.241-2.683-2.013-1.342 1.342-.67.671-.672.67 1.342 2.013.671.671v1.342l-2.013 2.683h-.67l-.67 2.684 1.34 2.012.672 2.013-2.684 1.341-3.354 2.013-.67.67-.671 1.342h-2.684l-2.683.671h-2.013l-1.341 1.342v.67l-2.013.671-1.342 1.342-.67.67-1.341-.67h-2.013l.67 2.013v1.34l.672 1.342v.67l-1.342 2.013-.67 2.013h-1.343l-.67 1.341.67 1.342 2.013.67-.67 1.342.67 1.342h2.012l.671.67 1.342-.67h1.342v.67l.67.672.671-.671h.671l2.013.67 2.012 1.342.67.671 1.343.671-.671.67-1.342.672 1.342 2.012 2.012 2.013 1.342-.671 1.342-.671 2.012.67h.67l.672-.67h1.341v.67l.671.672h.671l1.342 1.341-.671.671-.67 1.342v2.012l.67 1.342 1.342 1.342v4.696l3.354.67 3.354-.67 1.342 2.012.67 2.013 1.342 1.341 1.342.671 3.354.67 2.683 2.013 3.354 2.013.671 2.683 1.342 1.342h4.696l1.341.67 1.342.671 4.025-1.341 2.683-1.342h.671v2.012l2.013 2.013h2.683l1.342 2.012 1.341 2.013h2.684l1.341 1.342 1.342 2.683 3.354-2.683 2.013-2.684.67-1.341v-.671l.671-.671.671-1.342-1.342-.67-.67-.671v-1.342l.67-.67h1.342l2.683-4.026.671-4.025-.67-2.012-1.342.67-1.342-.67-.67-1.342h-1.343l-.67-2.013h.67l.671-1.341v-4.696l-2.012-.67-.671-2.013v-4.696l.67-2.683-.67-3.354-.67-2.013-.672-.67v-.672l1.123-.818.617-1.068-1.069-.797v-2.683l2.683-1.342 1.342-3.354 1.342-8.05-.671-.67-.67-.671v-.671l-.672-.671-1.341 1.342h-2.013l-1.342-1.342-2.012-1.342-.67-2.012-.672-1.342v-2.012l1.342-.67v-.672h.671l2.683-2.012 1.342-1.342 1.342.67h1.341l.671-3.353v-3.354l-1.342-1.342-1.342-1.342v-2.683h2.013l1.342-1.342v-2.012l-1.342-1.342-1.342-1.342-.67-1.341-.671-1.342h-2.013l-2.012 1.342h1.341l.671 1.341v1.342l-2.683-.67-.671-2.013-2.683.67-.671 2.684.67 2.683 1.342 2.013h1.342l1.342 1.341-.671 3.355-.67-1.342-.672-1.342-4.025-2.012-3.354-2.684.671-.67 1.342-2.684-.671-1.342 2.013-2.012 1.341-2.013zm7.38 1.342l.67-.67v-1.342l-.67-.671-3.355 1.342 2.684 1.341h.67zm-6.709-10.062l-2.683-.671.67 2.013h.671l.671-1.342zm3.354-3.354l.671.67.67-.67-1.34-.671-.672.67z" transform="translate(-1.044 -8.217)"/><path id="RU-CHU" class="cls-1" d="M591.786 92.01h-.67l-.672 2.013 2.684 1.341 1.341-.67 1.342-1.342-.67-.671-.672-1.342h-1.341zm18.783-42.598l-2.012 1.342v.94l-.671.402-.671.536-.67 2.885.67 2.952.67 1.543 1.342.805.671.335 1.342-3.69 2.012-1.073.671-.671v-.805l1.342-2.885-.67-2.884-1.343.2zm45.616 13.954l-.67 1.073-.671.738-.67.67.67.135.67-.47 1.342.335 1.342.537v1.476h1.342l1.342.67h-1.342v1.342h-.67l-.672-.67-.67.67h-2.013v-1.34l-1.342-.672-2.683-1.945-.67-.134h-.672v1.408l-.67-.2v-.269l-.671-.872-1.342-.67-1.342.402-.67.67 2.012.336-.67.604-1.342 1.341-.671-1.341-.671-.738-.67.603-1.342.805-.671-.67-.671-.135-2.013.805-2.012 1.342-.67-.67h-.672l-1.342.67-1.341.67-.671-.67-1.342-.67-2.012.67-2.013 1.342h-3.354l-.67.67-1.342.671v-.67h.67v-.671h-.67l-1.342.67-.671.671-1.342.671h-1.341l-.671.67-2.013.672-2.012.67h-.671v1.342l-.67-.67h-.672l-2.683 3.353-.67.671-1.342 1.342h-1.342l.67.67v.671h-1.341l-1.342.671-.67.671-1.342.67-2.013 1.342-2.012.671.67.671.671.67.671 1.343v2.012h1.342l.67-.67 3.355 2.012.67 3.354-.67 1.342v1.342h-2.013l-1.341-1.342-2.013.67-2.012.672-1.342-1.342-3.354-1.342-.67.67v3.355l-1.343 1.342h-1.341l-1.342.67-.67.671-1.342 1.342-2.013.67-1.342-.67v.67l-.67.672-.671.67h-.671l-.67 1.342v.67l-.672.672-.67.67.67 1.342.671.671h.671l.67.67.672 1.343h.67l1.342.67v1.342l1.342 2.013.67 1.341-1.341.671-.67.67-4.697 5.367-3.354 4.696.671.671.67.67-.67 1.343v1.341l4.025 2.684 4.025 1.341v.671l-.67.67 1.34 2.684 1.343 2.013h2.012l1.342.67.67 2.684h2.013l1.342-.671h2.012l2.013.67h2.683l2.013-1.341 2.012.67h3.354l1.342-1.34 2.012-1.343-.67-1.341 1.341-1.342.671-.67 1.342-.672h2.012v-.67l2.684-1.342h.67l1.342-.67 1.342-1.343.67-.67 1.342-.671h1.342l.67.67 2.013-.67 2.013-.671h1.341l.671.67h3.354l.671 3.355.67 4.025 2.684-.67h2.683l2.684.67 2.012.67h.671l.67-.67h.672l.67-.67v-2.013l.671-.671 1.342-.671 6.708-8.05.671.67 1.342 1.342 1.341-.67h1.342v.67l.67.671.672-2.012v-2.684l1.341-4.025 1.342-4.025h-1.342v-.67l-.67-.671h.67v-.671l1.342 1.342 3.354-2.013 3.354-2.012-.67-.671v-2.683l-2.013-.671-2.013-.671v-1.342l-2.012.671-2.013-.67-3.354-2.013-4.025-2.013-.67 2.013-2.684.67-1.341-1.341-.671-.67-.671 2.012v.67h-1.342v1.342l-.67-.67.577-.671h-2.59l.222.695.45 1.317-1.343.67-.67.672.67-1.342.671-.67v-.672l-.67-1.341h.67l4.025-2.013-.67-.67v-.671h2.683l2.683-2.013 1.342-4.025-.671-4.025-1.342-4.025h-2.012l-2.684-.67-.67-2.013.67-1.342h-.67l-.671-.67 1.342-.672.67.671v-2.683l1.342 2.013.67 2.013h1.343l.67-.671h.671l1.342 2.683.67-.67.671-.672 1.342-3.354 1.342-2.012 1.341-.671 2.013-.67 2.012 1.34 1.342.672 2.683-.671 2.013-1.342.67-.67.672-.671 2.012.67 2.013-.67v-1.342l-.671-.671v-.67l1.341 1.34.671.672.671-1.342-1.342-1.342h.67l.672-.67v-.672h-1.342l-1.342.671-.67-.67-.671-.671v.67h-.671l.67-1.341v-2.683l-.67-.671-.67-.671-1.343-.67h-3.354l1.342-.672 1.342-.67 1.341-1.14.671-1.476v-.47l-1.341.201-1.342-.47 1.342-.47 2.012-1.208-1.342-.872-.67-.67v-3.823l-.671.2-.671.538-.67.134-.672.067-2.012.537-1.342.47-3.354.067h-2.012l-1.342 1.676-.67 1.677-.672.537v.134l.671.537v.537l-1.342-.403-.67-.67z" transform="translate(-1.044 -8.217)"/><path id="RU-YEV" class="cls-1" d="M552.878 336.192h-2.013l-1.341-.671h-.671l-2.013-2.013-.67-.67h-1.342l-1.342.67-1.342-.67h-1.341l-.671 1.341-.671.671h-.671l-2.683 1.342-.671.67-.67 2.013-.672 1.342v2.683l.671.67 1.342 1.342v1.342l.67 1.342.671.67.671.671 1.342.671 1.342-.67h.67l4.025-2.013h1.342l.67-1.342v-1.341l1.343-.67 1.341-1.342h1.342l1.342-2.684 2.012-1.341h2.683l2.013-1.342-.67-1.342-.672-1.342-1.341.671h-2.684l-1.341 1.342z" transform="translate(-1.044 -8.217)"/><path id="RU-TY" class="cls-1" d="M348.945 317.409h-1.341l-3.354 1.342-2.013-.671-.67.67h-1.342v-.67h-.671l-.67.67h-2.013l-.671 1.342-.671 2.013-1.342.67-1.341.672-3.354 4.695-4.696 2.684-4.696-.671-4.025-1.342-.67-1.342-1.343-.67-2.012.67-2.013.671v3.354h-2.683l-2.683-.67v4.695l.67.671h.671v2.683l1.342.671v1.342h-1.342L304 342.23l.67.67h.672v.672l.67 1.341 2.684-.67h2.683V342.9l.67-1.342 3.355.671 1.342-.67 1.341-.672h2.684v-.67l.67-.671h.671v.67h.671v.671h.67l1.342-.67v1.341l.671 1.342h2.684l3.354.67.67 2.013.672 2.684 2.683.67 2.683.671h.671l.67-.67 3.355 1.341h1.342l2.013.671.67.67.671.672 4.696-2.684.67-2.012.671-2.013h-.671l-.67-1.341v-2.012l-.67-.67 1.34-3.355 2.013-2.683h.671l.671-.671 1.342-1.342.67-1.341v-1.342l-.67-.67v-1.343l.67-.67v-3.355h.671v-1.342l-.67-.67h-2.684l-3.354-2.684z" transform="translate(-1.044 -8.217)"/><path id="RU-SAK" class="cls-1" d="M634.719 340.888l-1.342.67h-1.341v1.342l-.671 2.683-.671 2.684.67.67h.672v-2.683l.67-2.683 1.342-1.342.67-.67zm4.025 4.696v-1.342l-.67.67-.672.672zm4.696-18.113l-.671-1.341h-.67l-.672 2.012-.67 1.342h-2.684v.67l.671.671-.67 1.342-.671 1.342v1.341l-.671 1.342v1.341l-.671 1.342.67.67.672-3.353.67-.671.671-.67v-1.342l1.342-1.342.67-2.013 1.342-1.341 1.342-1.342zm4.696-11.404l-.671.671-1.342 3.354v.67l-.67.672 1.341.67 1.342-4.695zm5.366-10.062l-.67-2.013v2.013l-.671 1.341v.671zm.671-9.392v1.342l.67-.671v-.67zm.67-10.062l-.67-1.342.67.67zm-.67-8.05l.67 1.341v.671l.672-.67-.671-2.013-.671.67zm2.683-12.746v-1.342h-.67l-.671 1.342zm-2.012 4.025l-1.342 2.683.67.671 1.343-1.342.67-2.012v-2.013l-.67-1.341-.671-.671-.671.67.67 1.342zm-55.68 33.541l-3.353-4.025-2.684-3.354-2.012-2.683v.67h-.67v-1.34l-1.343-.672-1.341-1.341-.671-3.354-1.342-4.025h-.67l-1.342-1.342-.671-1.342h.67l.672.67v.672h.67l-2.683-3.354-2.012-2.684v-1.341l-2.013-1.342-.67-.67v1.34h-.672l-.67.672 1.341.67 2.013 1.342v.67h.67v1.343h-.67v.67l.67.671-.67 2.013-.67-.671h-.672l-1.341.67v1.342l.67 1.342.671.67 1.342 4.697 1.342 4.696 2.683 2.012 3.354 2.683.67 2.013v2.683l1.342 1.342.671 1.341 4.025 12.075v.671l2.684 2.013 1.341 2.683.671 2.012v2.684l1.342 1.341.67 1.342 1.342 5.367 2.684 4.025.67-.671v-1.342l-.67-3.354.67-2.683.671.67 2.013-.67 1.341.67 1.342.671.67 1.342.672.671-1.342-3.354-1.342-2.683-.67.67-1.342-.67-1.342-.671-1.342-1.342-2.683-2.012-2.012-3.355-.671-4.025v-3.354l-.671-1.341v-1.342l.67-.67.672-1.343 3.354-.67 3.354 1.341 1.341.671.671.671-1.341-1.342-2.013-1.341-1.342-1.342-.67-1.342-4.025-4.025z" transform="translate(-1.044 -8.217)"/><path id="RU-AMU" class="cls-1" d="M526.044 284.538l1.342-1.341.671-2.013h-1.342l-.67-.67-1.342-.671-.671.67-1.342.671h-.67l-.67-.67-2.013 1.341-2.684-.67-1.341 1.34h-2.013l-.67.672v.67l-1.342.671-1.342 1.342v.67l-.67.672-2.013-.671-2.013-.671v.67h-2.683l-.67 1.342v.671l-1.343-.67h-.67l-1.342.67-2.013 1.342h-1.341l-1.342-.67h-2.013l-2.012.67-3.354-.67-1.342-1.343-1.341-1.341-3.355-.671h-4.025l-.67-.67-1.342-.672h-2.683l-1.342-.67-1.342-.671-1.341-.671-2.684.67-2.683 1.343v2.683h.67v1.341l.672.671 1.341.671 1.342.67-.67.672h-.672v1.341l1.342 1.342h.67v-.67l1.343-.671 2.012-.671 1.342 2.012.67 2.013h.671l1.342-.671 1.342 3.354-1.342 3.354.67.671h.672l2.012 1.342-.67.67-.671.671v2.013l-.671 1.342 2.012 2.012 1.342 2.013h3.354l1.342-.671 1.342-.671h.67l.671-.67 1.342.67 1.342.67.67-.67 2.013 1.342 2.012.67v-.67h4.025l.671.67v.671h.67l.672.671h.67v1.342h.671l1.342 1.341.67.671.672 2.684 3.354 4.025h.67v.67l.671.671v1.342l1.342 1.342 1.342 2.012.67.67.671 2.013h.671l.67.671v1.342l2.013 3.354 2.684-.67 2.683-.672.67.671h1.343v.671h.67l.671-.67.67.67v-.67h.672v-.672l2.683 2.013 4.696.67h.67l.671-1.341.671-2.013.671-.67v-2.013l-.67-2.013v-4.695l-1.342-.671h-.671v-.671l-.671-.67-.67.67h-.672v-.67l-.329-.33-.342-.342-.67.671v-4.025l.67-2.012.671-1.342v-.67l-.67-1.343 2.012-1.341 2.012-1.342v-1.342l.671-1.341.671-.671 1.342-.671 1.341-.67v-2.684l-.67-1.342 3.354-.67h2.683l.67-.671v-1.342l-.67-1.342v-2.683l-.67-2.012-2.013-.671h-.671l-.67.67-2.013.671h-1.342l-.67 1.342-1.343 1.342-2.683 1.341-1.342.671-.67.671h-2.684l-1.341-2.013-1.342-1.341h-2.683l-2.013-.671v-2.683l2.013-1.342v-4.025l.67-.67.672-.672 1.341-1.341 1.342-1.342v-1.342z" transform="translate(-1.044 -8.217)"/><path id="RU-BU" class="cls-1" d="M430.787 291.247h-1.342l-1.342-1.342v-1.342l-1.341.67h-3.355l-.67-.67-.671-.67-.671 1.34-2.012 1.343h-3.355l-.67-.671h-.671v-.671l-.671-.671-1.342 1.342-.67 1.342h-.671l-.671-.671-2.013 1.341-1.341 1.342.67 3.354h1.342v1.342l1.342.67.67 1.342h-1.341l-.671 1.342-.67 5.367.67 5.366 2.013-7.379 1.341-2.683 2.013-.671-.671 8.72-1.342 9.392-.67.671-.213.326-.458-.326-.368-.67-.303-1.342-.671 1.341-.67 1.342h2.012v1.342l-.671 1.341h-1.342l-1.342 2.013-2.012 2.683-8.05 3.354-.671 2.013-.67 2.012-4.697 2.684-2.683.67-.67.671-2.013 2.013h-2.683l-.671.67h-.671v-2.683l-.648-.648-1.364-1.364-.671-1.342v-1.342l-4.696-4.025-.671.67h-.67l-.672-1.34-.67-2.013-3.354-2.013-2.684-2.012-.67-2.013-.671-1.342-2.684 2.684-2.683 2.012-.67-.67h-.672v3.354l-.67.67v1.342l.67.67v1.343l.671.67 1.342.671 4.696 2.684 4.025 2.012h.67l.671.67 2.684.672 2.012.67v4.025l4.025 4.696 6.037 1.342 5.367-1.342 1.342-.67h.67l2.684.67 2.683.671h2.013l2.012 1.342 1.342 1.341h1.342l1.341.671v-2.683l1.342-2.013h1.342l1.341-1.341-1.341-.671-2.013-1.342 1.342-1.341 1.341-1.341-.67-2.013.67-1.341h2.683l2.013.67 1.341-1.341 2.013-1.342h2.012l1.342.671.671-.67 1.342-1.342 1.341-1.342 1.342-.671 1.342-.67.564-1.129.777-1.555h.671l1.342.67.67-1.341 1.342-.67 3.354-.672 3.355-2.683-1.342-4.025-1.342-2.683 1.342-1.342 4.025-3.354 3.354-3.354 1.342-.671 1.341-.67h1.342l1.342-.672v-4.695l-3.354-2.684-2.013-1.341v-2.684l-.67-1.341v-.671l-.671-1.342v-2.012l-.671-.671-.671-.671h-.671l.671-.671v-1.341l1.342-1.342h.67l.671-.671-3.354-.671-3.354 4.025-3.354 1.342-2.684-.671-1.341.67z" transform="translate(-1.044 -8.217)"/><path id="RU-KK" class="cls-1" d="M317.416 301.98l-1.341-1.342-1.342.671h-2.012l-2.013-2.012-2.012-2.013-.671.67v3.355l-.671 2.013-.67 2.683h2.012l1.341 1.341-.67.671-.671.671.67 1.342-.67 1.341h-.671l-1.342 1.342v1.342l.671 2.012-.67 1.342.67 1.342.67 2.012-2.682 2.013-2.684 1.341-1.341 1.342-1.342.671v2.012l-.67.671v.671l.67 2.013 2.012.67 1.342-.67 1.342-.671 2.683.67h2.683v-3.354l2.013-.67 2.012-.671.671-2.013 1.342-1.341.67-.671h1.342l1.342-2.683v-.671l1.342-.671 1.341-1.342v-.67l-.67-.671-.671-.671v-.67l-.67-.672 1.34-3.354-1.34-4.025-.672-4.025-2.012-.67z" transform="translate(-1.044 -8.217)"/><path id="RU-KEM" class="cls-1" d="M303.33 284.538h-4.697l-.67.671-.671-.67h-.671l-1.342 1.341-.67.67h-.671l-.671-.67-1.342.67h-1.342l-.67 1.342v.671l.67 2.013v2.012l.671.671-.67 1.342-.671 1.341.67 1.342v1.342l-.67.67-.671 1.342 1.342 1.342.136 1.41 1.205.603h.671v1.341l.67.671.672.67.67.672v2.012l.671 1.342 1.342.67.67.671-.67.671-.67 1.342.67.67v.672l-.67.67.67 1.342v2.013l1.342 1.341.67.671h.671l.671-.67.67.67.672.67h1.341v2.013l2.683-1.341 2.684-2.013-.671-2.012-.67-1.342.67-1.342-.67-2.012v-1.342l1.34-1.342h.672l.67-1.341-.67-1.342.67-.67.671-.672-1.341-1.341h-2.013l.67-2.684.672-2.012v-3.354l.67-.671 2.013-2.013 2.013-.67v-.671l-.671-6.037-.671-.671-.67-.671.67-1.342h.67l-.67-.67v-.671h-2.683l-2.013 1.341-1.341-.67-1.342-.672-.67.671z" transform="translate(-1.044 -8.217)"/><path id="RU-NVS" class="cls-1" d="M256.371 267.097l-1.342-.671-1.341-1.342-.671 1.342v.67l-.671 1.342v1.342l-1.342.67-.67 1.342.67 1.342v1.342h-2.683l-1.342.67-1.341 1.342h-1.342v1.342l.67.67-1.341 1.342-.67 3.355.67 1.341.67 2.013v.67l-.67.671-.67 1.342-.672 2.013h2.684l.67-.671.671-.671.671.67h2.013l-1.342 1.342-1.342.671 2.013 4.025 2.683 4.696 1.342-1.342.67-.67.671.67v.671l1.342-.67h1.342l2.012.67h2.013l.67-.67 4.696-2.013 4.025-1.342v.671l.671 2.012.67.671v1.342h.672l.67.67-.67.672 2.683 4.025 2.013-2.013 3.354-2.012.67 1.341h.672v-1.341h5.366l.671-.671 2.013-1.342.67-1.342.671-.67v-1.342l-.67-1.342.67-1.341.67-1.342-.67-.67v-2.013l-.67-2.013v-.67l.67-1.342h-3.354l-.67-.671-.672 2.012-1.341.671-.267-.266-.404-.405-.67-.67.67-.671.67-.671v-2.683l.672-.671-.671-1.342h-2.013l-.67.67v.672l-.671-.671h-4.025l-.671-2.683-4.696-.671-3.354-5.367-4.67-2.62.628-.694z" transform="translate(-1.044 -8.217)"/><path id="RU-ALT" class="cls-1" d="M283.875 302.65h-2.683v1.342h-.671l-.67-1.341-3.355 2.012-2.012 2.013-2.684-4.025.671-.671-.67-.671h-.672v-1.342l-.67-.67-.671-2.013v-.67l-4.025 1.34-4.696 2.013-.67.671h-2.013l-2.013-.67h-1.341l-1.342.67v-.67l-.671-.671-.67.67-1.342 1.342 4.695 24.15 2.684-.67v-1.342h1.341v-.671l.671-.671 1.342 3.354 1.342 2.683 2.683.671 1.342.671h2.683v-.67h2.012l.67-.672 2.684 2.013 1.342 2.683h2.012v-2.683l-1.341-1.342-1.342-1.341 1.342-.671 1.341.67.671-.67 1.342-.671h4.696l.67-.67.671-.672h1.342l.67-1.341.672-1.342.67.67.671.672h2.013l.67.67 1.342-1.341-.67-1.342.67-1.342 2.013-.67v-2.013l-.671-1.342.67-.67v-.671l-.67-.671.67-1.342.672-.67-.671-.671-1.342-.671-.67-1.342v-2.012l-.672-.671-.67-.671-.671-.67v-1.343h-.671l-1.205-.602-.137-1.41-1.341-1.342-2.013 1.342-.67.67h-2.684z" transform="translate(-1.044 -8.217)"/><path id="RU-DA" class="cls-1" d="M63.373 283.867l-1.408-2.012-2.013-3.354-1.073-.671-.47-.67-1.208.67-1.878 1.342-.94-.671-1.005.67h.402l-.134 1.342h-2.28l1.006.671-.336 2.013h.336l.134.67.067.671.94.671h.871l-.2.67-.068.672h2.28l.336 1.341-.201 1.342-1.476.67-1.677.672-1.14 2.012-.67 1.342h-2.416l-.268.67-.738-.67H46.67l-1.409.67-.805.671-1.006 1.342 1.342 3.354 1.744 2.684.47 4.695 1.476 4.025h1.61l1.744-.67h2.28l1.946-1.342v-6.038l.67-6.037 3.825-3.354 1.677-.671-.269-.67h-.939l.268-2.013.269-2.013-1.006-3.354 2.817-1.342z" transform="translate(-1.044 -8.217)"/><path id="RU-STA" class="cls-1" d="M48.48 258.376l.403-.67-.2-.672h-.873l-.805.671-.134-.67.067-.671h-.67l-.47-.671-1.14-1.342-1.343-.67-.335 1.34-.335.672-1.208-.671-1.006-.67-.872 1.34-.537 2.013.604 2.013-.403 1.341.537.671-1.006 1.342-1.073.67-.269-.67h-.335l.067 2.683 1.073 1.342.872 2.013h.94l.872.67-.269.671H39.09l-1.14.67.269.672h.738l-.537.67-.805 1.342h1.543l1.744.671.335.67-.134.672 1.878 1.341h1.476l1.275 1.342.738.67h.335l-.537.672h-.67l1.677 1.341.268 2.013 1.476-.671 1.006-.67.268.67.537.67h1.208l.335-2.012-1.006-.67h2.28l.135-1.342h-.403l1.006-.671.94.67 1.878-1.34 1.207-.672-.536-3.354-1.543-3.354-.94-1.342-.402-1.342.47-3.354-.805-1.341-1.007-1.342-.536-1.342-.604-2.012z" transform="translate(-1.044 -8.217)"/><path id="RU-KB" class="cls-1" d="M41.236 275.147l-.335-.671-1.745-.671h-3.42l-2.617 2.013 1.811 2.683.94 3.354h.603l.604.67 1.543-.67 1.475-.67.537.67.403.67.738-.67h.67l.537.67h.805l1.006-.67.805-2.013h.671l.537-.67h-.336l-.738-.671-1.274-1.342H42.98l-1.878-1.342z" transform="translate(-1.044 -8.217)"/><path id="RU-KC" class="cls-1" d="M38.217 267.097l-1.073-1.342H36.07l.067.67-2.415 1.342-1.074-1.341-1.073-2.013-2.28 1.342-2.214 1.342 2.347 4.696 3.69 4.025 2.617-2.013h1.878l.805-1.342.537-.67h-.738l-.269-.671 1.14-.671h1.543l.269-.67-.872-.672h-.94l-.872-2.012z" transform="translate(-1.044 -8.217)"/><path id="RU-KDA" class="cls-1" d="M41.84 242.947l-3.019-1.342-2.08-.67.336-.672.872-.67-.268-.671.134-.67-.738-.672h-.94v.671l-.2.67h-.068l-.603-.67-.336-.671-.94-.67h-.871l-.403-.672-.47-.67v4.025l.201 3.354-.335-.671h-.335l-.068-1.342v-.67l-.872.67-.939.671v-.67h.268l-.47-.672-1.274.671-1.208.671H25.74l-.872.67h-1.074l-1.81-1.34-1.14-2.013-.202 1.341.134.671-1.14-.67h-.94l.805 1.341.67 2.683-.47 1.342.135 1.342.47.67h.805l.067 2.013-.067 1.342 1.409 4.025.402 4.696.134 5.366h2.214l.872 1.342.537.67h.47l2.146-1.341 2.281-1.342 1.074 2.013 1.073 1.341 2.415-1.341-.067-.671h1.073l-.067-2.683h.335l.269.67 1.073-.67 1.006-1.342-.537-.67.403-1.342-.604-2.013.537-2.012.872-1.342 1.006.67 1.208.671.335-.67.335-1.342.336-.67-.067-1.343h.402l.336-.67h-1.14l-1.543-2.684.335-.67.268-.671-.268-.671-.134-.671h.47l.604-.67-.269-1.343-.805-.67zm-9.325 8.72l.336 2.013 1.878 2.013.671 3.354-.805.67-.402.671-.336.671-.335.67h-1.074l.268-1.34.202-1.343-1.476.671-.872 1.342-.537.67h-.604l-.872 2.013-1.342.671-1.341-1.342-.805-2.012.268-.67.67-.672h.538l.268.671-.134.67h.872l.67-.67-.2-.67-.135-1.342 1.543-1.342h1.543l.201-2.013-.47-2.012h-.737l-.604 1.342h-.402l-1.073-1.342-1.208-1.342-.335-.67-.201-.671.536-.671.671.67 1.073 1.342 2.281.671z" transform="translate(-1.044 -8.217)"/><path id="RU-ROS" class="cls-1" d="M68.136 227.518H67.6l-.47.67-2.885.671-2.75-.67-1.543-1.342-2.146 2.012-2.818-.67-.47.67v1.342h.537l.402.67h-2.884l-.201.672.201.67-.537 1.342-.47.67-1.207 1.343-1.744.67-2.147-1.341-2.08-2.013h-2.615l-1.208-.67-1.677 1.341-1.811 1.342 1.14.67.603.671 1.946.671 1.476.671-.135.67h-.402l-.537 1.343-.402-.671h-.671l-1.208-.671h-1.072l-.134.67.268.672-.872.67-.336.671 2.08.67 3.019 1.343.805.67.268 1.342-.603.67h-.47l.134.672.268.67-.268.671-.336.671 1.543 2.683h1.14l-.335.671h-.403l.068 1.342-.336.67 1.342.672 1.14 1.341 2.415-.67 1.811-.671 2.885 2.012 2.08 4.696 1.207.67 1.006-.67.336.67h.268l.738-.67.537-1.342h3.42l.135-.67.134-.671 1.879-1.342.939-2.013h-2.012l-1.14-.67.402-.671-.402-.671-.47-.67H60.89l.336-.672v-.67h-1.14l.67-4.025-1.006-2.013-.67-1.342.335-.67h.67l.806-.671.872-.671 2.213.67 2.415-1.34-.134-2.013-.335-1.342-.403-.67h-.268l1.878-2.013 1.811-1.342-.671-3.354-.134-2.683z" transform="translate(-1.044 -8.217)"/><path id="RU-SAM" class="cls-1" d="M129.584 229.53l-1.341-2.013-.671 1.342-1.342 2.013h-1.342l-.67.67-2.013-1.341-1.342-1.342h-1.341l-1.342-.67h-.67l-1.343.67h-2.012l-1.342 3.354-1.342 2.013v.67l.671 1.342v1.342l.671.67 1.342.672v2.012h.67v2.013l.671.67.671 2.684.671 2.012 5.367-.67 2.012-2.013 2.683-1.342.671-.67h1.342l1.342-1.342 1.341-2.013 1.342-.67 1.342-.671 1.341-2.684 2.013-.67-1.342-1.342h-.67v-2.013l-.671-.67-1.342-1.342h-1.342l-1.342.67-.67-.67z" transform="translate(-1.044 -8.217)"/><path id="RU-TA" class="cls-1" d="M138.976 212.089l-1.342.67-2.012-1.341h-2.684v.67h-2.012l-1.342.671h-3.354v.671l-3.354.67v.672l.67.67-.67 2.013h-2.683l-.671-.67h-.671l-.67.67v1.342l2.683.67.67 1.342 1.342 1.342h3.354l.67 1.342v2.012l1.342 2.013 1.342 2.012 1.342 1.342 1.342-.671h1.341l1.342 1.342.67.67v2.013h.672l1.341 1.342 1.342 2.012h.67v.671l-.67.67v1.343l1.342 1.341 1.341-2.683.671-1.342v-.67h1.342l.67-.671.672-1.342v-1.342l-.671-.67.67-.671v-.671l.671.67 2.684-.67 2.683-1.342-.67-1.342-1.343-1.341h-.67l-.671-1.342h2.012l2.013-1.342-1.342-.67-.67.67v-2.683h.67l-1.342-.67-1.341.67.67.67v.672l-1.341.67-.671-.67h-.67v-.671h-2.013l-1.342-1.342-.67-.67h-.672l1.342-.672h.671l-.67-.67-1.343-.671-.67-2.013h.67v-.67h-.67v-1.342l.67-2.013-2.012-.67z" transform="translate(-1.044 -8.217)"/><path id="RU-ME" class="cls-1" d="M136.963 205.38v-.67l-1.341-.67-.671-.672h-.671l-.67.671-.627-.626-.716-.716h-2.012l-.67-1.341-.672-.671-.67-.67-2.013-1.343-2.012-.67-.671.67-.671.671-.67-.67h-.672l-.67 1.341.67 1.342h-.67l-.671 1.342.67.67-.67 1.342h2.012l.671.67 3.354.672.671 2.012v.671l.67.67v1.343l.672 2.012h1.341l1.342-.67h2.012v-.672h2.684l2.012 1.342 1.342-.67.67-.672.672-.67-.671-.671v-2.683h-.671l-.67-.671.67-1.342v-.671h-1.342l-.67.67z" transform="translate(-1.044 -8.217)"/><path id="RU-CU" class="cls-1" d="M122.876 205.38l-.67-.67h-2.013l-.671.67-1.342.67v2.013l.67 1.342h-2.012l-1.341.67v.672h-.671v.67h.67l-.67 2.684 1.342 2.012 2.012 1.342.67-.67h.672l.67.67h2.684l.67-2.013-.67-.67v-.671l3.354-.671v-.67h2.012l-.67-2.013v-1.342l-.671-.67v-.672l-.671-2.012-3.354-.67z" transform="translate(-1.044 -8.217)"/><path id="RU-NIZ" class="cls-1" d="M126.23 187.268l-1.342 1.342h-2.683l-2.683-1.342v.67h-.671l-1.342.672-.67 1.341-1.342.671-1.342-.67-1.342-.672-1.341 1.342-.671.67-.671-.67h-.67v1.342l-.672.67v.671h-3.354l-2.012.671-2.013 1.342-2.683.67v1.342l-.67.67h.67l1.342.672v1.341l-.671.671 1.342 1.342.67.67h1.342l1.342.671 1.341 4.696 1.342 2.684 1.342-.671 1.342-.671v.67h.67l1.342-.67 2.013-.67.67.67-.67.67.67.672h1.342v-.671l1.342-.671h2.012l-.67-1.342v-2.012l1.341-.671.671-.67.67-1.343-.67-.67.67-1.342h.672l-.671-1.342.67-1.341h.671l.671.67.671-.67.67-.671 2.013.67 2.013 1.342.67-.67.671-.671.671-1.342.671-.67 2.683 1.34 1.342-.67 1.342-.67.67-.672-2.012-2.683-2.012-2.683-2.684-.671h-1.341v-1.341l-2.013-2.013z" transform="translate(-1.044 -8.217)"/><path id="RU-VLA" class="cls-1" d="M102.281 182.572h-2.213l.67-2.683-.67-2.013-2.683.671-2.013-2.012v-2.013l-1.978 3.32-1.339 4.037.659.658.68 1.34 2.019 2.018-1.383 4.056 2.013 2.684 2.683 3.354 2.683-.671 2.013-1.342 2.012-.67h3.354v-.671l.671-.671v-1.342l-1.342-.67-1.341-.672v-2.012h-.671l-2.013-2.013-.67-1.341-.671-1.342z" transform="translate(-1.044 -8.217)"/><path id="RU-MOS" class="cls-1" d="M84.001 166.451l-.68.659h-.659l-1.402.68-1.92.695-1.098 2.663-2.593 2.703 1.2.657.586-.024 1.275 2.699 2.038.693.703 3.323-.68.68-.531 1.339 1.424 2.018h.998l-.026.68-.01 1.352v.67l.695.634h-.659l-1.042 1.38.067 1.34h.94l1.34-.67.672-.67.685.67h.656l1.379-.71 3.988.04v-.672l1.341.67h1.342l1.382-4.055-1.339-1.34-.68-.68-.68-1.338-.658-.659 1.338-4.037 1.979-3.32v-2.011l-.671-1.342h-.671l-2.683-1.341-1.311 1.32-.702-.65-3.994-1.368-.659-1.339zm4.08 8.947l.49.913a.779.779 0 00.807.277l-.213.658.531 1.68-.276 1.104-1.7.149-1.105-.744-1.105.595-.531-.871-.425.956-1.573.085-.722-.914-.978.723-.319-1.594 1.148-.361.361-1.424 1.211 1.339.893-.85 1.87.829.255-1.36.807-.425z" transform="translate(-1.044 -8.217)"/><path id="RU-KLU" class="cls-1" d="M77.435 174.484l-.587.024-1.198-.657-5.166 1.342-.67-.67-.604-.672-.604.671h-1.14l-1.007-2.012-1.409-.67-.603.67-.47.67h-1.073l-1.14.672.402 2.683.671 3.354-1.074 1.341-.67.67 1.542 2.684 2.684.67 2.683.672.47-.671.335-.67 1.14-.672h1.342l.268-.67h.202l1.543.67 1.61.671.335.67h.537l.738-.67.2-.67h1.745l.94-.671.833-.026.531-1.339.68-.68-.703-3.322-2.038-.694z" transform="translate(-1.044 -8.217)"/><path id="RU-BEL" class="cls-1" d="M61.227 210.747l1.073-.67.134-1.342-.604-1.342-.603-.671-4.025-2.013-3.153-1.341-.738-.671-.604-1.342h-2.415l-1.274-1.341-2.415 4.025.872.67 1.341 1.342.336 1.342.47 1.342.067.67 2.214.671 2.146 1.342h-.269l-.47 2.683v2.013l.872.67.872-.67.805 2.683 1.61 2.683.47-.67.604-.671.67-1.342 1.007-2.013h.67l.672-.67-.135-1.342v-2.013h.94l.67-1.341h-.939l-.872-.671z" transform="translate(-1.044 -8.217)"/><path id="RU-ZAB" class="cls-1" d="M452.924 273.134l-2.012-.67-1.342 1.341 1.342 1.342-.671.67h-.671v2.013h-.67v.67l.67 4.697h1.342v4.025h-.671l-.67-.671-1.343 1.341-.67.671-1.342-.67h-.67l-3.355.67v1.342l-.67.67h.67l.67.672.672.67v2.013l.67 1.341v.671l.671 1.342v2.683l2.013 1.342 3.354 2.683v4.696l-1.342.671h-1.341l-1.342.67-1.342.671-3.354 3.355-4.025 3.354-.67.67-.671.671 1.341 2.684 1.342 4.025-3.354 2.683-3.354.67-1.342.672-.67 1.341-1.342-.67h-.671l-.67 1.341-.672 1.342-1.341.67-1.342.672-1.342 1.341-1.341 1.342-.671.67-1.342-.67h-2.013l-2.013 1.341-1.341 1.342-.6-.2-1.412-.47h-2.684l-.67 1.341.67 2.012-.467.468-.875.874-1.341 1.342 2.012 1.341 1.342.671-1.342 1.342h-1.342l-1.341 2.012v2.684l1.341 1.341 2.684 2.684 4.696.67 4.695.671h.671l.671-.67.67.67h1.342l1.342-.67 2.013-1.342 4.695-1.342 4.696-1.342 1.342-2.683 4.696-4.025 3.354.671 2.683 1.342h2.683l4.025-.671 3.355 2.012 4.695.671 1.342-2.012 2.013-2.013 2.012-1.342 1.342-1.341V342.9h-.671v-.67l1.342-5.367 1.341-6.038 2.013-2.683 1.342-2.684-.671-.67-.671-.671v-1.342l-.67-.67-2.013.67-.671-2.012.67-1.342 2.013-2.012v-.671l.671-.671 2.683-1.342 3.354-2.012-1.341-2.013-2.013-2.013.671-1.341v-2.013l.67-.67.672-.671-2.013-1.342h-.67l-.671-.67 1.341-3.355-1.341-3.354-1.342.67h-.671l-.67-2.012-1.342-2.012-2.013.67-1.342.671v.671h-.67l-1.342-1.341v-1.342h.67l.671-.671-1.341-.67-1.342-.672-.67-.67v-1.342h-.672v-2.683l-2.012-2.684-.67-2.683h-.672l-.67.67-1.342-2.682v-4.025l-2.683.67-1.342-.67z" transform="translate(-1.044 -8.217)"/><path id="RU-PRI" class="cls-1" d="M583.065 336.192h-2.012l-1.342-.67v-1.342l.67-1.342-.67-1.341-1.342-1.342-.67-.67-2.684 1.34-1.342 2.013h-1.341v.671l.67.67.671.672v.67l.671.671h2.683l-1.341 4.025-2.684 1.342v2.683l-2.683 2.013-3.354 1.341-.67-.67-.672-.671-.67.67-.671.671v-1.341l-.671-.671-.67.67-.672-.67h-.67l-1.342 2.012-.67 2.013v1.341l-1.343 1.342v7.379l-.67 1.341.67 1.342-.67.671-.671 1.342.67 2.012-1.341 1.342h-5.367l-2.012.67-.671 2.684-1.342.67-.67.672.67 1.341.671 1.342 2.013 4.025.67 4.025.671.67v.672l-.67 4.695-2.013.671-.67 1.342h.67l.67.67.672 1.342.67 1.342.671-1.342v-.67l-.67-.671-.671-.671h3.354v-1.342l.67-2.683 1.342-2.013-.67-.67.67-.671h.67v2.012l.672-.67.67-.671.671-.671v-.671l.671 2.013v1.341h.67v-.67h.672l.67.67.671-.67 1.342.67.67.671v-1.342l.672.671 1.341-.67 1.342-1.342 4.025-4.025 2.683-4.696.671-.671v-1.342h.67v-2.683l.672-2.013v-1.341l1.341-1.342.671-3.354L578.37 359l1.342-4.025 1.342-3.354.67-3.354.671-4.025v-3.354l.671-2.684z" transform="translate(-1.044 -8.217)"/><path id="RU-KAM" class="cls-1" d="M668.3 201.848l1.776-.593 1.582.989 3.462-.396-1.187-1.187-1.484.495-2.274-.791.296-.99-1.879 1.286zm8.931-3.598l1.746.038.591-.386 1.782-.158-.148-.346-4.154.395zm-31.108-17.69h-1.342v8.05h.671v-2.013l.671-1.341v-1.342l.67-.67.672-1.342zm2.683-42.262l-.67.67v2.013h-1.342l-.67.67-.672.672-2.012-.671-2.683-.671h-2.684l-2.683.67-.67-4.024-.672-3.354h-3.354l-.67-.671h-1.343l-2.012.67-2.013.672-.67-.671h-1.342l-1.342.67-.67.671-1.342 1.342-1.342.67h-.67l-2.684 1.342v.671h-2.012l-1.342.671-.671.67-1.342 1.342.671 1.342.67.67 1.343 2.684v2.684l1.341 2.012 2.013 2.013v1.341l.67 1.342v.67l.671 1.342 1.342 1.342 2.683 1.342v2.683l.671.671h.671v2.013l.67.67.672 1.342h.67l.671-.67v-.672l.671.671h1.342v-2.012h-2.013l-1.342-2.684v-1.341l-.67-.671-.671-2.013 2.012-1.341.671-2.013h3.354l-1.341 1.342-.671 2.683 1.342 2.013 1.341 2.012v1.342l.671 1.342h1.342l.67 2.012v1.342l.671.67.671.671-.67 1.342-1.342 1.342v2.012l-.671.671-.671 1.342v2.012l.67.671-.67 4.025v3.354l-.67.671v.67l-.672 2.684v2.683l.671.671.671.671v.67l-.67.672v4.025l-.672 2.683-.67 2.683-.671 1.342-.671.67v2.013l-1.342.671-1.341.67 1.341.672 1.342 2.012v4.025l-.67 3.354 1.34 4.025 2.013 4.025 9.392 12.746 12.075 12.075 2.012 3.354 2.684 2.683 2.012 1.342.671-3.354v-3.354l.67-.671.672-2.012-.671-6.038-1.342-1.342h-.67v-1.341l-.671-1.342h-.671l-.671-.67.67-.672 1.342.671 2.013-4.696 1.342-.67h.67v-.671l-3.354-2.684-1.341-4.025v-3.354l2.012-3.354h.67l.672.67 1.341-2.683v-2.012l-2.012-1.342-2.013-1.341-2.012-4.696.67-4.696v-.67l-.67-.672.67-1.341.672.67v2.013h1.341l.671-2.013-3.354-2.683v-.67l-.67.67-.672.67-2.012-2.012-1.342-2.012v-2.013l-.67-2.012h-3.355l-.67.67.67.672-1.342.67-1.341-.67-2.013-6.038v-4.025l-.67-.67h.67v-.672h-.67v-2.012l-.671-.67h-.671l-.67-3.355 1.34-2.683.672-.671-.671-.67h2.012l1.342.67.67-2.013-1.34-.67v-.671l1.34-2.683.672-2.684.67.671 2.684 4.025v-4.696l.67-3.354 2.013-4.025 2.683-1.342 3.354-1.341 2.684 1.341h2.012l-.67-2.012-1.342-2.013.67-1.341.671-2.013v-3.354l.671-.67-.67-1.342h-.671l.67-.671h.672l-.671-.671-.671-.67h.67l.672-2.013-.671-.671h-.671l.67-.671.672-.67v-2.013h-.671v-1.342h.67l.671-1.342v-1.341l.671-.671-.67-.671v-.67h-1.342l-1.342.67-1.342-1.342-.67-.67-6.709 8.05z" transform="translate(-1.044 -8.217)"/><path id="RU-MAG" class="cls-1" d="M593.128 146.347h-.671l-1.342.671h-2.012l-.671-2.683-1.342-.671h-2.012v1.342l-1.342.67-.671 2.013-.67 1.342h-.672l-1.341-.671-.671.67-.67.671-2.013.671-2.684.671v1.342h-2.012v1.342l.67 1.341-.67 1.342-.671 1.342v2.012l1.342.67-1.342 2.013v3.355l1.342 1.341 1.341.671-.67 1.342v.67h.67v1.342h-1.341l-.671 2.013-.67 1.341-.672.671-1.341.671v.67l-.671 1.343-2.013-.671-2.683-1.342-.67 1.342-1.342 1.341h-1.342l-1.342.671 1.342 2.013-.671 2.012-.67.671-.672-.67-.67.67-.671.67-1.342.672h-1.342l-.67 2.012-.672 2.683.671 6.038 2.012 1.342 1.342 1.341v.671l-.67 1.342.67.67v1.342l-.67 1.342v2.683l3.354-.67 2.683-.671 4.025 2.683 2.013 4.025h-.671v1.341l.338.676.333.666-2.013.67v2.684l2.013.67h2.683l2.683 1.342 2.013 2.013v2.012l2.012-.67h.671l1.342-1.342 1.342-1.342h1.341l2.013-.67-.671-.672h-.67v-1.341h.67v-2.683l2.012-.671 2.013-.67h2.012v.67h1.342v-1.342l2.013-1.342 1.341.671 1.342.67 1.342-.67h.67v.67h-.67l-1.342 1.343-1.342.67.671 2.013h.67l1.343-.67 1.341-2.013.671-.671h1.342l1.342-.671v-2.013l.67-1.341 2.013-.671h1.342l.67-.67v-1.343h2.013l-.671-.67h.67l.672-.671-.671-1.342-1.342-.67-1.342.67-.67.671v.67l-.671.672h-.671v-2.684h-.67l-.672-.67v-.671l.671-.671h-.671V198l1.342-2.683.67-3.355-.67-.67v-2.683l.67-1.342-.67-1.341-.671-1.342 1.342-2.683.67-2.013h1.342l.67-.67 2.684-4.026h2.013l1.341.671.671-2.012v-1.342l1.342 1.342.67 1.341v2.684l.671.67.671.671v.671l.671.67.67-.67.672-.67.67 1.341.671 2.013 1.342-6.709 1.342-7.379h-.671l-.67-1.342-.672-.67v-2.013h-.67l-.671-.67v-2.684l-2.684-1.342-1.341-1.341-.671-1.342v-.671l-.67-1.342v-1.341l-2.013-2.013-1.342-2.012v-2.684l-1.342-2.683-.67-.67-2.013 1.34-1.342 1.343h-3.354l-2.012-.671-2.013 1.341h-2.683l-2.013-.67h-1.341z" transform="translate(-1.044 -8.217)"/><path id="RU-SA" class="cls-1" d="M412.003 120.185h-1.341v2.013h-.671l.67 1.341 2.013 1.342 1.342-.67.67-1.343zm69.767-8.72l-1.342-2.013-2.012-.671 1.341 1.342 2.013 1.341zm-6.709-15.43v-2.683l-.67-.671-1.342.67 1.342 2.013v1.342zm16.771 6.708l.671 2.684.67.67h1.342v-2.683zm11.404 8.05l1.342-2.683v-.67l-.67-.672-3.355-2.012H497.2l-1.342 2.012v2.684l-.67 1.341-.671.671-.671.671h1.342l1.341-.67 1.342-.672h2.012l3.355-.67zm-4.696-25.491l.671-.67-3.354-.672-2.683-.67-.67.67-1.343.671-2.683-1.342-2.012-.67v.67l.67.671h-.67l-.671.671v.67l.67 1.342v.671l.671.671-2.012-.67-2.013-.672-1.341-.67h-.671l-.67-.671v-.671l-.672.67-.67 1.342-.671 1.342-.671.671-.67.67.67.672v2.012l-.67 1.342h.67l.67.67v1.342l.671 1.342 1.342 1.342 2.013.67.67 1.342.671.67h3.354v-4.024l.671.67.671.672.67-.671.672-.671 2.683-2.013h2.683l.671-.67.67-.671.672-.671-1.342-.67h-1.342l-2.683-2.013-1.342-2.684 2.013-2.012v.67l4.025 5.367 2.012-2.683-.67-2.683zm16.1-4.025l-.67.67-2.013-.67-2.012.67v.671l-.671.671-1.342-.67v-.671h-2.012l-1.342.67v1.342l-.67.67-1.342-1.34v-.672l-.671 1.342.67 2.683 2.684.671 3.354.67 4.025-1.34 2.683-2.684v-1.341zm44.275 24.15l-10.733 6.708-3.354 4.025-2.684 1.342-2.683-1.342-2.683-1.342h-3.354l-2.684-.67v.67l-.67.671h-1.342l-.67-.67.67-1.342 1.342-.671-1.342-1.342-2.013-1.341-2.683.67-2.012.671-2.684 5.367-2.683 4.696h-.67v-1.342l-.672-.67 1.342-.672.671-.67-.67-.671v-1.342l1.34-.67.672-1.342-1.342.67-3.354 2.013-.67.67-.672.671-.67-1.341 2.012-2.013h.67l2.013-1.342 2.013-.67-7.38.67-7.378 2.684h-3.355l-1.341.67.67.671 1.342.671-.67 2.013-2.013.67-1.342 3.355.67.67 1.342-.67v1.342l.671.67.671 1.342v1.342l1.342.67v1.342h-1.342v1.342l-.67-.67-.671-.672h-.671l-.671.671h-1.342v4.025l-2.683-1.342-4.696-.67-2.012 2.683-2.684 2.012-2.683-.67-2.012-1.342-.671-1.342 1.341-.67-1.341-.671-.671 6.037-.67 7.38-.672.67-.67-.67-.671-.672v.671h-1.342l-.67-.67v-.671h-2.013l-1.342-2.013-1.342-2.012h-.67l-.671-.671.67-.67.671-.672-.67-1.341-1.342-.671.67.67v.671l-.67.671-1.342-1.342-.67-1.341-3.355-2.013-1.341-.67h2.012l1.342 1.341 1.341 1.342h2.013l1.342-1.342-.671-2.012-1.342-1.342v-2.683l-.67-1.342v-.67l-1.342-1.343h-1.342l-4.025-3.354-1.342.671-1.341.671h-3.355l-2.012-1.342-2.683-.67v.67l-.671.671-1.342 3.354.67 2.684v2.683l-1.34-.67h-2.013v.67h-1.342l-1.342.67-.67.672-2.013-.671-1.342-.671H432.8l-1.342-.67v-1.343l1.342-1.341-.67-.671h-5.367l-1.342-.67-.67.67h-.672l-1.341-.67h-1.342l-.67.67-.672.67-1.341.672-2.013.67v2.013l-1.342-1.342.671-1.341-.67-2.013-1.342-1.342v2.013l-.671.67h-2.013l-2.013-1.341-.67.67-.671 2.013-1.342 1.342.671.67h.67v2.013l.672.671-.671 2.683.67 2.684.671.67v2.013l.671.67 1.342.672 1.342 1.341.67 2.684v2.683l1.342 2.683.67 2.013v.67l-2.682 2.013-2.684 2.013-.67 2.012v1.342l-.671.67-1.342.671v2.684l-1.342 2.012h-1.341l-2.013-.67-2.012.67-1.342 1.342h-1.342l-1.341-.671v.67h-.671l-.671 1.343v.67l.67 2.684 1.342 2.012v9.392l-.67 7.379-2.013 1.342-1.342 1.341.671.671.671.67v4.697l.67 1.341v3.354l.672 1.342 1.341 1.342 1.342 1.342-.67 1.341-.672.671-1.341 2.013v2.012l-1.342 2.013 1.342 2.683h1.341l.671.67.671.671 2.683.671h4.696l.67 1.342.672 2.012-.671.671-1.342 2.013 2.012.67 2.013 2.013.653 4.57.018 3.48 1.342 1.342 1.341 2.012-.67 1.342-1.342 1.341.67 3.355 2.013 2.012-1.342 3.354-1.341 4.025v2.013l-.671.67-.671.671v3.354l.67 2.684h1.342l3.354-.671.671-1.342 2.013.67h.67v-.67h4.025l.671-.67 1.342-1.342v.67l.67 1.342 1.342.67-.67 2.013 3.354-3.354 2.683-4.025h1.343l.67-1.341.672-2.013 1.341-.67h1.342l2.013-2.013h2.682l2.013.67 1.341 1.342 1.342.671v1.342l.67.67v1.342h6.709l.67 1.342v1.342l.671 1.341v2.013l.671 1.342.671.67v.671l.67 1.342v4.025l1.343 2.683.67-.67h.671l.671 2.683 2.012 2.683 2.684-1.342 2.683-.67 1.342.67 1.341.671 1.342.67h2.683l1.342.672.671.67h4.025l3.354.671 1.342 1.342 1.341 1.342 3.355.67 2.012-.67h2.013l1.341.67h1.342l2.012-1.341 1.342-.671h.671l1.342.67v-.67l.67-1.342h2.684v-.67l2.012.67 2.013.672.67-.671v-.671l1.342-1.342 1.342-.67v-.671l.67-.671h2.013l1.342-1.342.67-3.354v-2.683l1.342-.671.671-.67v-1.342l-.67-1.342-1.342-.671-.671-.67h-1.342l.671-1.342 1.342-.671v-2.013l.67-.67.671-.672-2.012-1.341-1.342-2.013h2.013l-.671-2.683.67-2.013.671-4.025.671-1.341 1.342-1.342h1.342l3.354-1.342 3.354-1.341.67-.671v-1.342l.671-1.342.763.381.58.29h.67l1.342-.67 3.354-2.013.67-2.683v-.671l.671-.67 1.342 1.34.67-.67-.67-2.012-1.342-1.342-.67-2.683-.671-3.355-1.342-2.012.67-2.683v-.671l.672-.67v-.672l.67-.67v-1.342l1.342-.671.67-.67v-4.026l.672-4.025h2.683l3.354 1.342h1.342l.67-.67.672.67.67.67 1.342-2.012 1.342-1.342h.67l.671.671.671-.67.671-.671.67.67 1.343 1.342.67-2.012v-4.696l.671-1.342v-1.341l-.67-.671.67-1.342v-.67l-1.342-1.342-2.012-1.342-.67-6.038.67-2.683.67-2.012h1.342l1.342-.671.671-.67.67-.672.672.671.67-.67.671-2.013-1.342-2.013 1.342-.67h1.342l1.342-1.342.67-1.342 2.684 1.342 2.012.67.671-1.341v-.67l1.342-.672.67-.67.671-1.342 1.342-2.013h.67v-1.341h-.67v-.671l.67-1.342-.67-.67-2.013-1.342v-3.355l1.342-2.012-1.342-.67v-2.013l.671-1.342.671-1.342-.67-1.341v-1.342h2.012v-1.342l2.683-.67 2.013-.671.67-.671.671-.67 1.342.67h.67l.671-1.342.671-2.012 1.342-.671v-1.342l-1.342-2.012-1.341-2.684.67-.67v-.671l-4.025-1.342-4.025-2.683v-1.342l.671-1.342-.67-.67-.671-.671 3.354-4.696 4.695-5.367.671-.67 1.342-.671-.67-1.342-1.343-2.013v-1.341l-1.341-.671h-.671l-.67-1.342-.672-.67h-.67l-.671-.671-.671-1.342-.67 1.342v1.341h-.672v-.67h-.67v3.354l-.671-1.342-1.342-1.342-2.012.671h-2.684l-.67-2.012-1.342-2.684-7.38-2.012zm-65.741 28.175l1.342.67 1.341-.67v-.671l-.67-.67-1.342.67z" transform="translate(-1.044 -8.217)"/><path id="RU-KYA" class="cls-1" d="M309.367 126.893l.67 1.342h2.013v-4.025l-2.683 2.683zm16.1-22.808h.67v.67l.671.672.671-2.684-.67-.67v.67zm4.025-50.513v-.604l-.671-.47-2.013-.872 1.342 1.073v.94zm11.404-15.362l-2.013-.537-1.342.604.671.67h.671l1.342.403zm68.424 59.167l.67.67v.671l1.342.671-.67-2.012-.671-.671-.67.67zm-43.604-5.367h2.013l1.341-2.013h-1.341l-.671.671-.67.671-.672.67zm-.67-33.609l.67-1.945-1.341-1.342-2.013-.67-.67-.336-1.342.805v1.744l1.341.537.671.537v1.341zm14.758 1.007l-2.013-3.556-2.012 1.476-1.342 2.214-.67.805-.672.402.671-.872.671-.738v-.335l-.67.335-1.342.537-.671-.134 2.683-1.543.67-2.55-2.012-.737-2.683.268-.67.134v.336h-.672l-.67.268-1.342 1.208.67.805v.805l-.67.134-.67.067-.672.805-.67 1.006-.671.269v1.006l.67.201v-1.073l.671-.202v1.678l.671-.067.67.268-.67 1.274v1.342l.67.403v1.475l.672.738h.671l.67-.67v1.341h2.013l1.342 1.342 1.342 1.342 2.683.67 2.683-2.012-.67-1.342V67.19l-.671-1.274v-.067l.67-.067.671-3.153.671-3.22zm14.758 18.515h-.67v.67l-.672.671h.671zm.67 2.683h1.342l.671-.67-.67-.672h-1.342l-.671.671v.671zM383.83 66.854v-1.61l-.671.268-.67.671-.672 1.677v1.342l.671.67h-.67l-.671.671v2.013h-.671v-.67l-.671 1.34-.67 1.343v2.012l-1.343 2.013-.671 2.012 1.342 1.342 2.012-1.342 1.342-1.342h2.684l4.025-1.341 2.013-.671.67-2.013v-2.012l-.67-1.342h-.671v.671h-.671v-2.012l-.67-.671-.672-.671V67.86l-1.341 1.342-1.343 2.012v.671h-.67v-.67l2.013-5.569-1.342-.737-.671-.067v1.207zm28.175 35.219v.67l-.671-1.341v-1.342l-.671-.67h-1.342l-1.342-2.013-1.341-2.013-.671.671-.671-.67h-.67v.67h-3.355l-1.342.67-.67-.67h-.671l-.671.67-1.342 2.684h-2.012l1.342-3.354v-2.683h-4.025l.67-.671v-.671l-2.012.67-1.342-.67 1.342-.67 1.342-1.342.67-.671h.671l.671-.671-1.341-1.342-2.013-.67-.67-.671v-.671h-1.342l-1.342.67h-.67l-4.025 4.697-2.684 4.695.671.671v2.013l-4.025 1.341-.67-.67h-1.342v.67l1.341 2.013.671 1.342h-1.342l-.67-1.342-1.342.67h-.671v.671l-.671.671h-.67v.671h-2.013l-.671.67h-.671v-.67l-.67-.67-1.342.67-.671.67.67-1.34.671-.672-4.025-1.341-4.025.67-.67.671 1.341.671h1.342v.67l-1.342.672h-1.341l-2.684.67-2.012.671h-4.025l-1.342.671-2.683 1.342-1.342 1.341h-4.025l.67.671 1.343.671-.671.67-1.342.672-.67 1.341v1.342l-1.342-1.342-2.013-.67v.67l2.013 2.013 1.341 1.342-.67.67-.671-.67-.671-.671-.67.67h-1.343l1.342 1.342 2.013 2.013-.671.67v4.026h-.671l-1.342.67h-.67l.67-.67.671-.671.67-.671v-.67l-2.682-.672-2.013.671h-3.354l-4.025-.67-4.025-.671h-2.013l-1.341-.671v.67l-.671 1.342-.67.671.67.67v.672h-.67v1.341l.67.671-.67 2.013-.672 1.341v1.341l-.67.672 2.012 2.012 2.013 1.342v4.025l2.012 1.342.67 2.683-1.341 2.013-1.342 2.012.671 1.342-.67 6.037-1.342.671-1.342.67 2.012 4.697.671 2.683h-.67v-.67l-1.342-.672-.671-.67v-2.684l-.67-1.342-.672-.67 2.684-6.709-.671-1.341-1.342-.671.67-.67v-1.342l2.013-1.342 2.013-2.684-2.013-1.341-3.354-.671-.67-2.013-.671-2.012-2.013-2.683-2.012-2.013h-2.013l.67 1.342.672 1.342 1.341 1.341 1.342 1.342v2.012l-1.342 1.342h-2.012v2.683l1.342 1.342 1.341 1.342v3.354l-.67 3.354h-1.342l-1.342-.67-1.342 1.341-2.683 2.013h-.67v.67l-1.342.671v2.013l.67 1.341.671 2.013 2.013 1.342 1.341 1.341h2.013l1.342-1.341.67.67v.671l.671.671.67.67-1.34 8.05-1.342 3.355-2.684 1.341v2.683l1.07.797-.618 1.068-1.122.818v.671l.67.67.671 2.013.671 3.355-.67 2.683V198l.67 2.012 2.013.67v4.697l-.671 1.342h-.671l.67 2.012h1.342l.671 1.342 1.342.67 1.342-.67.67 2.012-.67 4.025-2.684 4.025h-1.341l-.671.671v1.342l.67.67 1.342.672-.67 1.341-.671.671v.67l-.671 1.343-2.013 2.683-3.354 2.683.671 4.696 2.683 1.342 1.342 1.341-4.696 2.684-5.366 1.341v8.721l2.594 1.298 2.772-.627 2.683.67 2.013.672 1.342.67v.671l.67.671h.671l1.342 1.342v2.012l.67 1.342 2.013.67 1.342 2.013-1.342.671-2.012 1.342-.671 2.012v2.013l2.683 2.683 1.342 3.354v.67h-.671v1.343l-.67.67h-1.343l-1.341 2.684-.431 1.292-.24.72v.671l.67.67h-.67l-.671 1.342.67.671.671.671.671 6.038v.67l-2.012.67-2.013 2.013 2.013 2.013 2.012 2.012h2.013l1.341-.67 1.342 1.341 2.013.671.67 4.025 1.342 4.025-1.341 3.355.67.67v.671l.672.67.67.672v.67l-1.341 1.342-1.342.671v.67l-1.342 2.684h-1.341l-.671.67-1.342 1.343-.67 2.012 1.341.67.67 1.343 4.026 1.341 4.696.671 4.695-2.683 3.355-4.696 1.341-.67 1.342-.672.67-2.012.671-1.342h2.013l.67-.67h.672v.67h1.341l.671-.67 2.013.67 3.354-1.342-1.342-2.012-1.342-2.013-1.341-.67-.671-.671V310.7l2.012-1.342 2.013-.67h.67v-2.013l.671-2.013v-1.341l.671-.671.671-.67-.67-1.342.67-2.013 2.683-2.683 2.013-1.342h.67l.671-.67-.67-.672v-3.354l-.671-1.341-1.342-.671 1.342-3.354 2.012-3.355 2.013.671h2.013l1.342.671h2.683l.67-2.683.672-.671h1.341v1.342l1.342 4.025 2.683 1.341v-3.354h-.67l2.683-5.366 5.366-3.354v-.671l.671-1.342 2.013-1.342h1.341l.671.671v2.013l1.342.67h.67v1.342h1.342l.671.67.671.672h.67l1.342-2.013v-.67l1.342-1.342.671-2.013-1.342-2.012-1.341-1.342.67-.67.671-.672v-.67h2.013V262.4l-1.342-1.341-2.012-.671-1.342-5.367.67-3.354v-.67l.672-.671 1.47-.13 3.225-3.225 2.683-3.354v-1.341l-.67-.671.67-1.342.671-.67-.67-2.013-.672-1.342.671-3.354 1.342-3.354v-.671l1.342-.67.67.67.671.67.671-.67.67-.67 1.342-.672h.671v-2.683h-2.683l-2.683-.67-.671-.672-.67-.67h-1.343l-1.341-2.684 1.341-2.012v-2.013l1.342-2.012.67-.671.672-1.342-1.342-1.341-1.342-1.342-.67-1.342v-3.354l-.671-1.342v-4.695l-.671-.67-.67-.672 1.34-1.341 2.013-1.342.671-7.38v-9.39l-1.342-2.013-.67-2.684v-.67l.67-1.342h.671v-.67l1.342.67h1.342l1.341-1.341 2.013-.671 2.012.67h1.342l1.342-2.012v-2.683l1.341-.671.671-.67v-1.343l.671-2.012 2.683-2.013 2.684-2.012v-.67l-.671-2.013-1.342-2.684v-2.683l-.67-2.683-1.342-1.342-1.342-.67-.67-.672v-2.012l-.672-.67-.67-2.684.67-2.684-.67-.67v-2.013h-.671l-.671-.67 1.342-1.343.67-2.012.671-.67v-1.343l.671-.67-1.342.67-.67.671-1.342-.67-2.013 1.341v2.013h1.342l2.013-.671v.67l-.671.671h-.671l-1.342 2.013-1.341.67-.671-.67-.671 1.342-1.342.67v2.013l-1.341-.67-.671-.672v.671h-4.696l-.67 2.013-2.013 2.012h-.671l.67-1.342 1.342-1.341v-1.342l.671-1.342 2.013-.67.67-2.013-.67-.67-1.342-.672h-.67l4.024.671 2.684-2.683h.67l.671-1.342.67-1.342 1.343-1.341 1.341-1.342.671-2.012 4.025-2.684v-.67l.67-.671 1.343-2.013 2.012-2.012.67-3.355-1.34-.67-.672-1.342v.67l-.67.672v-2.013h.67l1.342.67v1.343l.67-1.342v-3.354h-1.34v-2.013l-1.343-1.341v1.341zm-48.971-51.05l-.67.134-.672.402.671.269.67.2.672.605.67.67-.67.067-.671-.067v.47l.67.135.672.067.67.738.671.402 1.342-.47.67-.604 5.367-.67.671-.336v-3.623l1.342-.805.67-.805v-.738l-.67-.737v-.135l-.671-.335-1.342-3.153-.67-2.482-1.342-.067v.94l-3.354 1.877-2.684 2.147v1.14l.671.268v.604l-.67.67v.739l-.671.738-.671.335-.671.336v.536l.67.47v.202h-.67zm-1.342-11.27l-.67.872v.603h.67l1.342.604 1.342-1.677zm5.367 60.978l-1.342-.67.67 1.34 1.343.672v-1.342h-.671z" transform="translate(-1.044 -8.217)"/><path id="RU-ORE" class="cls-1" d="M141.66 252.338l.67-2.012h-.67l-.672-.67v-.672l-.67-.67-.671-.671v-4.025l.374-1.125.296-.888-1.341-1.342v-1.341l.67-.671v-.671h-.67l-1.342-2.013-2.012.671-1.342 2.684-1.342.67-1.341.671-1.342 2.013-1.342 1.342h-1.342l-.67.67-2.684 1.342-2.012 2.013-5.367.67v.671l1.342 2.013v1.341l2.012 1.342h3.355v3.354l2.012.67 1.342 1.343.67 1.341v1.342l.671 2.683.671 2.684-.67.67v1.342l1.341-.67.67-1.342.672.67h.67v2.013l1.342 1.342.671 1.341h2.013l.67-.67.671-.671 2.683.67 2.684 1.342.67 1.342v.67h1.342l1.342-.67.67.67.672.672h1.341l.671 2.012-.67 1.342 3.353 4.696h2.013l1.342-1.342.67 1.342v.67l4.696 2.013 4.025-3.354-2.012-3.354-2.013-2.684h.67v-.67l-.67-1.342v-1.342h-.67l1.341-2.012 1.342-.671-2.013-2.013-2.012-.67-.671.67h-.67v-1.341l-.672-.671-.67 1.342h-1.342l-1.342 2.683-2.683-.67-.671-.672-1.342-.67h-2.683l-.67-.671-.672-1.342h-.67l1.341-3.354-.67-.67-.671-.672 1.341-1.341 1.342-2.013-2.012-.67-1.342 1.34h-.671l-1.342-4.024h1.342v-.671l-.67-1.342v-1.341z" transform="translate(-1.044 -8.217)"/><path id="RU-SAR" class="cls-1" d="M99.104 227.518h-.378l-1.342-.671-2.012-1.342v-.67l-.671-.671-.67-.671h-1.342l-.671-.671-.671-1.342-2.013-.67-1.341-2.013-3.268 1.307-3.306 1.376.134 2.013-.94 2.683.403 2.683 1.61 1.342h2.013v.67l.67.671h1.342v1.342h.67l.672.67.67 2.013-1.341 2.013-1.342.67.671.672h.67v.67l.672.671.67-.67h.671l.671.67v1.342l1.342.67h1.341l.671 2.013 1.342 2.684v.67l2.012 3.354v4.025l3.355-1.341.67-2.013.671-2.012h.67v.67l.672.671h3.354l.67-.67.671-1.342 5.367 1.342 1.342-.671 1.341-.671.671.67h.671v-1.341l-.67-2.012-.672-2.684-.67-.67v-2.013h-.671v-2.013l-1.342-.67-.67-.671v-1.342l-.671-1.341v-1.342l-.671-.671-4.025-.67-2.013-2.684-.67-.67-1.342-.672h-1.342l-2.013.671v-1.342z" transform="translate(-1.044 -8.217)"/><path id="RU-VGG" class="cls-1" d="M84.639 230.872v-.67h-2.013l-1.61-1.343-.402-2.683-1.476-.67-1.744-.672-.738-.67-.604-1.342h-.872l-1.006.67-1.61-.67h-1.677l-.067 1.342.2 1.341-1.408 1.342-1.476.67.134 2.684.671 3.354-1.811 1.342-1.878 2.012h.268l.403.671.335 1.342.134 2.012-2.415 1.342-2.214-.67-.872.67-.805.67h-.67l-.336.672.67 1.341 1.007 2.013-.67 4.025h1.14v.67l-.336.671h1.073l.47.671.403.671 3.287-1.342 2.482 1.342.872-1.342.47-1.341 1.006.67v1.342h2.013l1.14-.67h.872l.537.67h.134l.134-.67.738.67h3.018l2.013.67.402 1.343.67 1.341 1.343-.67.67-.671h2.013v-1.342l.67-2.013 2.684-2.012 3.354-.67.67-.672.672-.67v-.671l-1.342-2.684-.67-2.012h-1.342l-1.342-.67v-1.343l-.67-.67h-.671l-.671.67-.671-.67v-.671h-.67l-.672-.67 1.342-.672 1.342-2.012-.671-2.013-.67-.67h-.672v-1.342H85.31l-.67-.671z" transform="translate(-1.044 -8.217)"/><path id="RU-VOR" class="cls-1" d="M69.746 206.722v-.67l-1.61-.672-1.878-.67.134.67-.402.671v.671h-1.007l-.872-.67-.738 1.34-.939 1.343-.134 1.341-1.073.67.872.672h.939l-.67 1.341h-.94v2.013l.134 1.342-.67.67h-.672l-1.006 2.013-.671 1.342-.604.67-.47.671.738 4.025 1.208.671.536.67 1.543 1.343 2.75.67 2.885-.67.47-.671h.537l1.475-.671 1.41-1.342-.202-1.341.067-1.342h1.677l1.61.67 1.006-.67h.872l.604 1.342.738.67 1.744.671 1.476.67.94-2.682-.135-2.013-.872-.67.134-.671h-1.006l-.67-1.342-.738-1.342-1.409-.67-1.207-.671.2-.671.336-1.342-.67-.67-.537-.672-1.811-2.012-1.678-1.342.201-.67-.604-1.342h-.805l-.603-.671h.067z" transform="translate(-1.044 -8.217)"/><path id="RU-SMO" class="cls-1" d="M76.991 164.46l-2.549-.67-3.555-.672-2.617-3.354-2.817-3.354-.94-1.342h-1.408l-.872.671-1.476 1.342-2.012 2.012H57.47l-.067 1.342.134.67h.201l.067.672h-.603l-.671.67-.604 1.342-.268 2.013.268 1.341-.067.671-.67.67-.806.672.403.67.738.671.2 2.013-.67.67.134 1.342-.268.671h1.476l.67-.67h2.348l2.348-.671 1.14-.671h1.074l.47-.671.603-.67 1.41.67 1.005 2.012h1.14l.604-.67.604.67.67.671 5.166-1.341 2.593-2.704 1.097-2.663-.872-.67-1.007-1.343-.268-.67z" transform="translate(-1.044 -8.217)"/><path id="RU-TVE" class="cls-1" d="M90.676 151.043l-2.012-1.342-.671.671-.671.671-2.013.67-2.012.672h-.67l-.672-.671-.603-.671-3.69-.67-3.757-1.342-.94-.671-.871-1.342-1.074.67-.939.672h.067l.336.67-.604.671-.604.671v1.342l-.402 2.012-3.421 2.684 2.817 3.354 2.617 3.354 3.555.671 2.55.67.2 1.342.269.671 1.006 1.342.872.67 1.878-.67 1.446-.704h.658l.68-.659 1.34 2.678 3.994 1.368.701.65 1.311-1.32 1.342.67 1.341.67h.671l.671 1.343v1.341l2.013-2.683 2.012-.67-.67-.672v-3.354l.67-1.341v-1.342h1.342l.81-.811.531-.53-.67-.672 1.341-.67h1.342l.67-4.025-2.683-.671h-2.013l-1.341-.67h-.671l-.67-1.343-1.343-.67h-.67l-.671.67-1.342-.67-.67-.671h-.671l-1.342-2.013z" transform="translate(-1.044 -8.217)"/><path id="RU-PER" class="cls-1" d="M179.226 193.305l-1.342-1.341-1.342-2.013-1.341.671-1.215-.81-.798-.532.67-1.342-1.34-1.341h-1.343l-4.025-1.342-1.341 3.355.67 2.013-1.34.67 2.682 2.684 2.684 2.012-2.013 2.683-3.354 2.013v2.012l1.342 1.342-.671.67-.67 2.013-1.342.671-.671 1.342-2.013 6.037-2.683 6.038-.67.67-.672-.67v.67l-.67.672h-.671l-.671.67v3.354l.67-.67h.671l.671 2.012.671 1.342 2.013.67h2.012v.671l.67.671.672.671h.67l.671 2.013v.67h2.684l1.341-1.341.671-2.013v-.67l1.342-.671h3.354l1.342-2.013 1.341-1.342 1.342 1.342h2.013v-1.342l.67-2.013 3.354-.67 2.013-2.013v-2.683l1.342-2.013-1.342-3.354 2.012-2.012 1.342-.671 1.342-.67 3.354-3.355 3.354-3.354v-1.342l1.342-2.683 2.012-2.683-6.708-.671-4.025-4.025-2.013.67-1.341.671-.671-.67h-.671l-.67.67h-1.343v-.67h-2.683l-1.342.67z" transform="translate(-1.044 -8.217)"/><path id="RU-KHM" class="cls-1" d="M261.067 209.405l-1.342-2.012-3.354.67-3.354-.67v-4.696l-1.342-1.342-.67-1.341V198l.67-1.342.67-.67-1.34-1.342h-.672l-.67-.67v-.672h-1.342l-.67.671h-.672l-2.012-.67-1.342.67-1.342.671-2.012-2.013-1.342-2.012 1.342-.67.67-.672-1.341-.67-.67-.67-2.013-1.342-2.013-.671h-.67l-.671.67-.671-.67v-.671h-1.342l-1.342.67-.67-.67h-2.013l-.67-1.342.67-1.342-2.013-.67-.67-1.342.67-1.342h1.342l.671-2.012 1.342-2.013v-.67l-.671-1.342v-1.342l-.67-2.012-1.342.67-2.013.671v.671l-1.342.67-1.341.672-1.342.67-.67-1.341v-.671h-1.343l-1.341.67h-.671l-.67.672-1.343.67-.67.671-.671 4.025-2.684 2.683-2.683 2.684-1.342 2.683-1.341 2.683v.671l.67.671-.67 1.342h-1.342l-.67 2.012-.671 1.342v.67l.67.672v2.012l2.013 1.342 2.012 1.341 2.013 4.696.67 1.342 1.342 2.012-1.341 2.684-.671 2.683-.67 1.342v2.012l1.34.671v1.342l-.67 2.683-.67 2.683 2.012 1.342 2.012 1.342v7.379l.671.67 2.012.671h2.013l.67-1.341 1.342-.671h.671l.671.67h3.354l1.342.672h.67l.672-.671.67-.671 2.684-.67 1.341-2.013.671-.671h1.342l.67 1.342.671.67h2.013l2.012.671.671.67h.671l.67.672 1.343 2.012.67 2.684h.671l.671.67v.671l-.67.67 1.34 1.343h.672v3.354l1.341.67 2.013 1.342.67.671.672.67h2.012l1.342 1.343 2.683-2.684 2.683-2.683h4.025l2.013-3.354.67-2.683.671-.671h.671l.671-1.342-.67-1.342.67-.67.67.67 2.684.671 2.683.67.671.672.671.67 1.342-.67h1.341v1.341l1.342 1.342h2.683l2.684-.67v1.341l1.341 1.342h2.013l.67.67 1.342.671.671-.67h.67l2.013-1.342 1.342-.671 2.013 1.342 2.012.67 5.367-1.341 4.696-2.683-1.342-1.342L304 237.58l-.67-4.696-1.343-2.683-1.341-1.342h-2.684l-1.341-2.012-1.342-2.013h-2.683l-2.013-2.012v-2.013h-.67l-2.684 1.342-4.025 1.342-1.342-.671-1.341-.67h-4.696l-1.342-1.343-.67-2.683-3.355-2.012-2.683-2.013-3.354-.67-1.342-.671-1.342-1.342z" transform="translate(-1.044 -8.217)"/><path id="RU-TOM" class="cls-1" d="M287.23 243.618h-2.013l-1.342-1.342v-1.342l-2.683.671h-2.684l-1.341-1.342v-1.341h-1.342l-1.342.67-.67-.67-.671-.671-2.684-.67-2.683-.672-.67-.67-.672.67.671 1.342-.67 1.342h-.671l-.671.67-.67 2.684-2.013 3.354h-4.025l-2.684 2.683-2.683 2.684v2.012h-.671v2.013h-.67v.67l.67.671v2.683l.67 1.342v1.342l-.67.67.67 1.342.671.671 1.342 1.342 1.342.67 8.032 2.724-.626.694 4.669 2.62 3.354 5.366 4.696.671.67 2.683h4.026l.67.671v-.67l.671-.672h2.013l.67 1.342-.67.671v2.684l-.671.67-.671.672.34.34 1.002 1.001 1.341-.67.671-2.013.671.67h4.696l1.341-.67.671.67h.671l.67-.67 1.343-1.342h.67l.671.67.671-.67h4.696l.67-.67 1.342.67 1.342.67 2.012-1.34h2.684l.67-2.013 1.342-2.684h1.342l.67-.67v-1.342h.672v-.67l-1.342-3.355-2.683-2.683v-2.013l.67-2.012 2.013-1.342 1.342-.67-1.342-2.013-2.013-.671-.67-1.342v-2.012l-1.342-1.342h-.67l-.672-.67v-.671l-1.341-.671-2.013-.671-2.683-.67-2.772.626-2.595-1.298v-8.72l-2.012-.671-2.013-1.342-1.342.67-2.012 1.343h-.67l-.672.67-1.341-.67z" transform="translate(-1.044 -8.217)"/><path id="RU-IRK" class="cls-1" d="M405.966 224.834h-2.013v2.684h-.67l-1.342.67-.67.671-.672.671-1.341-1.342-.615.308-.727.363v.671l-1.342 3.354-.67 3.354.67 1.342.671 2.012-.67.671-.671 1.342.67.67v1.342l-2.683 3.355-3.225 3.225-1.47.129-.671.67v.671l-.67 3.354 1.34 5.367 2.013.67 1.342 1.342v2.684h-2.013v.67l-.67.671-.672.671 1.342 1.342 1.342 2.012-.671 2.013-1.342 1.341v.671l-1.341 2.013h-.671l-.671-.671-.67-.67h-1.343v-1.343h-.67l-1.342-.67v-2.013l-.67-.67h-1.342l-2.013 1.341-.67 1.342v.67l-5.367 3.355-2.683 5.366h.67v3.355l-2.683-1.342-1.342-4.025v-1.342h-1.341l-.671.671-.671 2.684h-2.683l-1.342-.671h-2.013l-2.012-.671-2.012 3.354-1.342 3.354 1.342.67.67 1.343v3.354l.671.67-.67.671h-.672l-2.012 1.342-2.683 2.684-.671 2.012.67 1.342-.67.67-.67.671v1.342l-.672 2.012v2.013h-.67l-2.013.67-2.013 1.342v1.342l.671.67 1.342.671 1.341 2.013 1.342 2.012h1.342l3.354 2.684 3.354 2.683h2.683l.671.671v1.342l.671.67 2.683-2.012 2.684-2.683.67 1.341.671 2.013 2.683 2.012 3.355 2.013.67 2.012.671 1.342h.671l.67-.67 4.697 4.024v1.342l.67 1.342.671.67 1.342 1.342v2.684h.67l.671-.67h2.684l2.012-2.013v-.671l-4.696-1.342 2.013-.67 3.354-1.342-.67-.671-1.342-.67v-.672l-.671-.67v-.671l2.012 2.012 2.684 1.342 8.05-8.72 10.062-14.76-.67-5.367.67-5.366.67-1.342h1.342l-.67-1.342-1.342-.67v-1.342h-1.342l-.67-3.354 1.341-1.342 2.013-1.341.67.67h.671l.671-1.341 1.342-1.342.67.67v.672h.671l.671.67h3.354l2.013-1.341.67-1.342.671.67.671.672h3.354l1.342-.671v1.342l1.342 1.341h1.341l1.342-.67 2.683.67 3.354-1.341 3.355-4.025 3.354.67-.671.671h-.67l-1.343 1.342 3.355-.67h.67l1.342.67.67-.67 1.343-1.343.67.671h.671v-4.025h-1.341l-.67-4.696v-.67h.67v-2.013h.67l.672-.67-1.342-1.342 1.342-1.342 2.012.671 1.342.67 2.683-.67-.67-1.342v-.67l-.672-.671-.67-1.342v-2.012l-.671-1.342v-1.342l-.67-1.341h-6.71v-1.342l-.67-.67v-1.342l-1.342-.671-1.341-1.342-2.013-.67h-2.683l-2.012 2.012h-1.342l-1.342.67-.671 2.013-.67 1.342h-1.342l-2.684 4.025-3.354 3.354.67-2.013-1.34-.67-.672-1.342v-.67l-1.208 1.208-.804.804h-4.025v.67h-.671l-2.013-.67-.67 1.342-3.354.67h-1.342l-.67-2.683v-3.354l.67-.67.67-.672v-2.012l1.342-4.025 1.342-3.354-2.012-2.013-.671-3.354 1.342-1.342.67-1.341-1.341-2.013-1.342-1.341v-3.355l-.67-4.695-2.013-2.013-2.013-.67 1.342-2.013.67-.671-.67-2.012-.671-1.342z" transform="translate(-1.044 -8.217)"/></svg>