<svg version="1" xmlns="http://www.w3.org/2000/svg" width="933.333" height="933.333" viewBox="0 0 700 700"><path d="M329.9 22.4c-.2.2-4.2.7-8.9 1.1-30.7 2.5-62.2 10.3-96.4 23.8-6.4 2.5-31.5 15.2-38.6 19.5-12.3 7.4-33.5 21.7-36 24.2-.3.3-4.1 3.4-8.5 7-10.9 8.8-33.5 31.4-43.4 43.3-34.9 42.3-58.9 92.2-69.5 144.7-1.9 9.3-2.4 12.3-3.2 18-.3 2.5-.8 5.4-1 6.5-1.9 9.6-2.6 57.8-1.1 72.5 1.3 13.5 3.9 29.6 6.3 40 .9 3.6 1.7 7.3 1.9 8.4.3 1 1.2 4.4 2.1 7.5.9 3.1 1.8 6.3 1.9 7.1 1 4.4 7.3 22 11.6 32.4 20.6 48.9 52.3 92.1 92.4 125.6 5 4.1 11.7 9.6 15 12.1 6.1 4.7 24 16.9 24.8 16.9.3 0 3.6 1.9 7.3 4.2 16.1 9.7 41.5 21.2 62.4 28.1 17.7 5.8 51.5 13.6 52.9 12.1 1.1-1 .6-82.5-.4-83.4-.6-.5-2.6-1.2-4.5-1.5-13.2-2.3-41.8-12.7-57.2-20.8-12.9-6.8-29-16.9-35.7-22.2-11.2-9.1-17.4-14.6-27.1-24.4-10.8-10.9-13.3-13.6-20.9-23.6-1.7-2.2-3.5-4.5-4.1-5.2-3.9-4.6-13.7-21.2-20.1-33.8-9.8-19.4-17.8-42.3-21.4-61-.5-2.2-1-4.7-1.1-5.5-.2-.8-.5-3.3-.9-5.5-.3-2.2-.7-4.9-.9-6.1-2.3-11.9-2.4-48.5-.2-63.4.3-1.4.7-4.6 1.1-7.1.3-2.6.7-5.5 1-6.5 8.6-42.1 23.7-75.3 49.4-108.4 6-7.8 26.5-29.2 33.6-35 22.1-18.3 38.4-28.1 70-42.1 3.1-1.3 20.7-7 23.4-7.5 1.4-.3 2.8-.7 3.1-.9 2.5-1.5 28-6 40.5-7.2 14.9-1.3 49.8-.6 56.5 1.2 1.7.5 5.6 1.2 11.5 2 2.2.3 9.2 1.9 15.5 3.5 37.9 9.6 72.7 28.1 102.9 54.8 4.7 4.2 8.8 8 9.1 8.4.3.4 3.5 3.8 7.1 7.5 28.6 29.9 49.6 69.1 60.2 112.3l1.3 5.5h42c41.2 0 41.9 0 41.9-2 .1-1.1-.7-6-1.7-10.8-10.8-53.7-32.9-101-67.5-144.2-10.4-13-32-35-45.3-46.1-31.7-26.5-69.9-47.6-109-60.4-8.9-2.9-29.5-8.4-35-9.3-1.4-.3-6.3-1.2-11-2s-11.2-1.9-14.5-2.3c-3.3-.4-7.6-.9-9.5-1.1-4.2-.6-53.6-1.3-54.1-.9zm290.8 379.4c-1.1.2-2.1 2.6-3.3 8-5.4 25-13.7 46.6-29.1 76.5-.8 1.5-5.2 8.3-9.7 15-27.6 41.4-64 73.5-107.2 94.6-20.2 9.8-49.2 19.9-62.9 21.8-2.5.3-4.8 1-5.1 1.5-.6 1-.9 32.7-.3 33 3.1 1.1 46-10.2 57.4-15.2 1.1-.5 7-2.9 13-5.5 12.8-5.4 30.9-15.1 44.4-23.8 9.8-6.4 30.6-22.2 37.4-28.6 11.4-10.6 18.8-18.2 29.2-30.1 19.1-21.9 39.3-55.2 50.4-83.2 6.8-17.3 15-45.2 16.6-56.8.3-2.5.8-5.2 1-6 .4-1.3-1.7-1.5-14.8-1.5-8.5 0-16.1.1-17 .3z"/></svg>