<svg width="16" height="16" fill="none" xmlns="http://www.w3.org/2000/svg"><path fill-rule="evenodd" clip-rule="evenodd" d="M8 2.2a3.068 3.068 0 00-2.952 2.23.6.6 0 01-.578.437h-.138a2.4 2.4 0 100 4.8h1a.6.6 0 010 1.2h-1a3.6 3.6 0 01-.294-7.188 4.268 4.268 0 017.922 0 3.6 3.6 0 01-.294 7.188h-1a.6.6 0 010-1.2h1a2.4 2.4 0 000-4.8h-.138a.6.6 0 01-.578-.437A3.068 3.068 0 008 2.2z" fill="#0050B2"/><path fill-rule="evenodd" clip-rule="evenodd" d="M7.575 14.824a.6.6 0 00.849 0l2.333-2.333a.6.6 0 10-.848-.849l-1.31 1.31v-5.22a.6.6 0 00-1.2 0v5.218l-1.308-1.309a.6.6 0 00-.849.849l2.333 2.333z" fill="#0050B2"/></svg>