<svg width="24" height="24" viewBox="0 0 24 24" fill="none" xmlns="http://www.w3.org/2000/svg">
<path fill-rule="evenodd" clip-rule="evenodd" d="M12 3.375C7.23654 3.375 3.375 7.23654 3.375 12C3.375 16.7635 7.23654 20.625 12 20.625C16.7635 20.625 20.625 16.7635 20.625 12C20.625 7.23654 16.7635 3.375 12 3.375ZM1.125 12C1.125 5.9939 5.9939 1.125 12 1.125C18.0061 1.125 22.875 5.9939 22.875 12C22.875 18.0061 18.0061 22.875 12 22.875C5.9939 22.875 1.125 18.0061 1.125 12Z" fill="#04092A"/>
<path fill-rule="evenodd" clip-rule="evenodd" d="M12 5.625C12.6213 5.625 13.125 6.12868 13.125 6.75V10.875H15C15.6213 10.875 16.125 11.3787 16.125 12C16.125 12.6213 15.6213 13.125 15 13.125H12C11.3787 13.125 10.875 12.6213 10.875 12V6.75C10.875 6.12868 11.3787 5.625 12 5.625Z" fill="#04092A"/>
</svg>
