<svg width="24" height="24" viewBox="0 0 24 24" fill="none" xmlns="http://www.w3.org/2000/svg">
<path fill-rule="evenodd" clip-rule="evenodd" d="M1.10001 6.44467C1.10001 4.8736 2.3736 3.60001 3.94467 3.60001H20.0553C21.6264 3.60001 22.9 4.8736 22.9 6.44467C22.9 7.40751 22.4129 8.30501 21.6057 8.82975L14.2345 13.621C14.1992 13.6439 14.1644 13.6667 14.1299 13.6891C13.6031 14.0324 13.1599 14.3212 12.6627 14.4379C12.2268 14.5402 11.7732 14.5402 11.3373 14.4379C10.8401 14.3212 10.3969 14.0324 9.87016 13.6891C9.83566 13.6667 9.8008 13.6439 9.76555 13.621L2.39436 8.82975C1.58707 8.30501 1.10001 7.40751 1.10001 6.44467ZM3.94467 5.40001C3.36772 5.40001 2.90001 5.86772 2.90001 6.44467C2.90001 6.79826 3.07887 7.12785 3.37534 7.32055L10.7465 12.1118C11.4355 12.5596 11.5983 12.6502 11.7486 12.6855C11.914 12.7243 12.086 12.7243 12.2514 12.6855C12.4017 12.6502 12.5645 12.5596 13.2535 12.1118L20.6247 7.32056C20.9211 7.12785 21.1 6.79826 21.1 6.44467C21.1 5.86772 20.6323 5.40001 20.0553 5.40001H3.94467Z" fill="#0050B2"/>
<path fill-rule="evenodd" clip-rule="evenodd" d="M2.50001 7.10002C2.99706 7.10002 3.40001 7.50297 3.40001 8.00002V16.3C3.40001 16.8749 3.40071 17.252 3.42427 17.5403C3.44697 17.8182 3.48633 17.9335 3.5199 17.9994C3.62536 18.2064 3.79364 18.3747 4.00062 18.4801C4.06651 18.5137 4.18185 18.5531 4.4597 18.5758C4.74805 18.5993 5.1251 18.6 5.70001 18.6H18.3C18.8749 18.6 19.252 18.5993 19.5403 18.5758C19.8182 18.5531 19.9335 18.5137 19.9994 18.4801C20.2064 18.3747 20.3747 18.2064 20.4801 17.9994C20.5137 17.9335 20.553 17.8182 20.5757 17.5403C20.5993 17.252 20.6 16.8749 20.6 16.3V8.00002C20.6 7.50297 21.003 7.10002 21.5 7.10002C21.9971 7.10002 22.4 7.50297 22.4 8.00002V16.3354C22.4 16.8653 22.4 17.3165 22.3698 17.6869C22.338 18.0761 22.2683 18.4547 22.0839 18.8166C21.8059 19.3623 21.3622 19.8059 20.8166 20.0839C20.4546 20.2684 20.0761 20.338 19.6869 20.3698C19.3165 20.4 18.8653 20.4 18.3354 20.4H5.6646C5.13473 20.4 4.68355 20.4 4.31312 20.3698C3.92396 20.338 3.54537 20.2684 3.18343 20.0839C2.63777 19.8059 2.19412 19.3623 1.91609 18.8166C1.73167 18.4547 1.66204 18.0761 1.63024 17.6869C1.59998 17.3165 1.59999 16.8653 1.60001 16.3354L1.60001 8.00002C1.60001 7.50297 2.00295 7.10002 2.50001 7.10002Z" fill="#0050B2"/>
</svg>
