<svg width="256" height="93" viewBox="0 0 256 93" fill="none" xmlns="http://www.w3.org/2000/svg">
<path d="M256 -1.52588e-05H0V93H256V-1.52588e-05Z" fill="#04092A"/>
<path d="M164.863 60.6234C164.863 55.1649 166.471 50.6717 169.719 47.1704C172.937 43.668 177.24 41.9186 182.65 41.9186C185.643 41.9186 188.311 42.4766 190.674 43.5938C193.014 44.7354 194.823 46.1055 196.081 47.7576C198.572 51.0558 199.804 54.2787 199.804 56.6408H196.409C196.409 55.9551 196.055 54.4051 194.75 52.0721C194.093 50.9294 193.29 49.8365 192.334 48.8226C191.378 47.833 190.046 46.9699 188.36 46.2344C186.648 45.4976 184.737 45.1414 182.65 45.1414C178.245 45.1414 174.775 46.5906 172.235 49.5082C169.667 52.4271 168.385 56.1326 168.385 60.6258C168.385 65.1191 169.667 68.8233 172.235 71.7398C174.775 74.6611 178.245 76.1333 182.65 76.1333C184.737 76.1333 186.648 75.7504 188.36 75.0161C190.046 74.2782 191.378 73.4187 192.334 72.4279C193.29 71.4371 194.093 70.3454 194.75 69.1795C196.055 66.8429 196.409 65.3209 196.409 64.6364H199.804C199.804 66.9961 198.572 70.219 196.081 73.4928C194.823 75.1426 193.014 76.5139 190.674 77.6311C188.311 78.7714 185.643 79.3282 182.65 79.3282C177.24 79.3282 172.937 77.5788 169.719 74.0751C166.471 70.5982 164.863 66.105 164.863 60.6234Z" fill="white"/>
<path d="M238.852 60.6234C238.852 56.1314 237.569 52.4259 235.004 49.5058C232.412 46.5893 228.967 45.139 224.639 45.139C220.311 45.139 216.864 46.5881 214.298 49.5058C211.709 52.4247 210.425 56.1302 210.425 60.6234C210.425 65.1167 211.709 68.8209 214.298 71.7374C216.864 74.6587 220.311 76.1309 224.639 76.1309C228.967 76.1309 232.412 74.6587 235.004 71.7374C237.568 68.8209 238.852 65.1154 238.852 60.6234ZM206.905 60.6234C206.905 55.1649 208.512 50.6717 211.732 47.1704C214.927 43.668 219.229 41.9186 224.639 41.9186C230.02 41.9186 234.325 43.668 237.544 47.1704C240.738 50.6729 242.347 55.1649 242.347 60.6234C242.347 66.1062 240.738 70.5983 237.544 74.0727C234.325 77.5764 230.02 79.3258 224.639 79.3258C219.229 79.3258 214.927 77.5764 211.732 74.0727C208.512 70.5983 206.905 66.105 206.905 60.6234Z" fill="white"/>
<path d="M51.375 76.8445V73.4661C62.2259 71.3836 70.78 62.6901 72.796 51.6856H76.1434C74.054 64.5319 64.0526 74.6879 51.375 76.8445Z" fill="white"/>
<path d="M70.2682 41.6584C67.9619 30.4302 58.1196 21.9653 46.359 21.9653C32.8909 21.9653 21.9352 33.0658 21.9352 46.7097C21.9352 58.6442 30.3194 68.6312 41.4354 70.9471V79.3902C25.7345 76.9746 13.6533 63.2615 13.6533 46.7097C13.6533 28.4571 28.324 13.6097 46.359 13.6097C62.6925 13.6097 76.2269 25.8032 78.6453 41.6584H70.2682Z" fill="#FF004C"/>
<path d="M91.1482 60.6234C91.1482 55.1649 92.758 50.6717 96.0031 47.1704C99.2228 43.668 103.525 41.9186 108.935 41.9186C111.928 41.9186 114.594 42.4766 116.958 43.5938C119.299 44.7354 121.11 46.1055 122.368 47.7576C124.859 51.0558 126.09 54.2787 126.09 56.6408H122.695C122.695 55.9551 122.342 54.4051 121.035 52.0721C120.38 50.9294 119.575 49.8365 118.621 48.8226C117.663 47.833 116.329 46.9699 114.645 46.2344C112.933 45.4976 111.023 45.1414 108.935 45.1414C104.532 45.1414 101.06 46.5906 98.5191 49.5082C95.9525 52.4271 94.6716 56.1326 94.6716 60.6258C94.6716 65.1191 95.9525 68.8233 98.5191 71.7398C101.06 74.6611 104.532 76.1333 108.935 76.1333C111.023 76.1333 112.933 75.7504 114.645 75.0161C116.329 74.2782 117.663 73.4187 118.621 72.4279C119.575 71.4371 120.38 70.3454 121.035 69.1795C122.342 66.8429 122.695 65.3209 122.695 64.6364H126.09C126.09 66.9961 124.859 70.219 122.368 73.4928C121.11 75.1426 119.299 76.5139 116.958 77.6311C114.594 78.7714 111.928 79.3282 108.935 79.3282C103.525 79.3282 99.2228 77.5788 96.0031 74.0751C92.758 70.5982 91.1482 66.105 91.1482 60.6234Z" fill="white"/>
<path d="M157.966 78.82L138.144 60.6733V78.82H134.748V42.4255H138.144V60.1651L156.583 42.4255H160.96L142.623 60.4204L162.419 78.82H157.966Z" fill="white"/>
</svg>
