<svg width="24" height="24" viewBox="0 0 24 24" fill="none" xmlns="http://www.w3.org/2000/svg">
<path fill-rule="evenodd" clip-rule="evenodd" d="M10 3.4C6.35493 3.4 3.40001 6.35492 3.40001 10C3.40001 13.6451 6.35493 16.6 10 16.6C13.6451 16.6 16.6 13.6451 16.6 10C16.6 6.35492 13.6451 3.4 10 3.4ZM1.60001 10C1.60001 5.36081 5.36081 1.6 10 1.6C14.6392 1.6 18.4 5.36081 18.4 10C18.4 14.6392 14.6392 18.4 10 18.4C5.36081 18.4 1.60001 14.6392 1.60001 10Z" fill="#FFFFFF"/>
<path fill-rule="evenodd" clip-rule="evenodd" d="M14.8636 14.8636C15.2151 14.5121 15.7849 14.5121 16.1364 14.8636L21.6364 20.3636C21.9879 20.7151 21.9879 21.2849 21.6364 21.6364C21.2849 21.9879 20.7151 21.9879 20.3636 21.6364L14.8636 16.1364C14.5121 15.7849 14.5121 15.2151 14.8636 14.8636Z" fill="#FFFFFF"/>
</svg>
