<svg width="16" height="16" viewBox="0 0 16 16" fill="none" xmlns="http://www.w3.org/2000/svg">
<path fill-rule="evenodd" clip-rule="evenodd" d="M7.99909 2.2C6.59623 2.2 5.41194 3.14248 5.0478 4.42996C4.97473 4.68831 4.73892 4.86667 4.47044 4.86667H4.33242C3.00694 4.86667 1.93242 5.94118 1.93242 7.26667C1.93242 8.59215 3.00694 9.66667 4.33242 9.66667H5.33242C5.66379 9.66667 5.93242 9.9353 5.93242 10.2667C5.93242 10.598 5.66379 10.8667 5.33242 10.8667H4.33242C2.3442 10.8667 0.732422 9.25489 0.732422 7.26667C0.732422 5.37758 2.18747 3.82834 4.03797 3.67854C4.66787 2.10898 6.20332 1 7.99909 1C9.79486 1 11.3303 2.10898 11.9602 3.67854C13.8107 3.82834 15.2658 5.37758 15.2658 7.26667C15.2658 9.25489 13.654 10.8667 11.6658 10.8667H10.6658C10.3344 10.8667 10.0658 10.598 10.0658 10.2667C10.0658 9.9353 10.3344 9.66667 10.6658 9.66667H11.6658C12.9912 9.66667 14.0658 8.59215 14.0658 7.26667C14.0658 5.94118 12.9912 4.86667 11.6658 4.86667H11.5277C11.2593 4.86667 11.0235 4.68831 10.9504 4.42996C10.5862 3.14248 9.40195 2.2 7.99909 2.2Z" fill="#0050B2"/>
<path fill-rule="evenodd" clip-rule="evenodd" d="M7.57548 14.8243C7.80979 15.0586 8.18969 15.0586 8.424 14.8243L10.7573 12.4909C10.9917 12.2566 10.9917 11.8767 10.7573 11.6424C10.523 11.4081 10.1431 11.4081 9.90881 11.6424L8.59974 12.9515V7.73333C8.59974 7.40196 8.33111 7.13333 7.99974 7.13333C7.66837 7.13333 7.39974 7.40196 7.39974 7.73333V12.9515L6.09067 11.6424C5.85636 11.4081 5.47646 11.4081 5.24214 11.6424C5.00783 11.8767 5.00783 12.2566 5.24214 12.4909L7.57548 14.8243Z" fill="#0050B2"/>
</svg>
