<svg width="24" height="24" fill="none" xmlns="http://www.w3.org/2000/svg"><path fill-rule="evenodd" clip-rule="evenodd" d="M12 3.375a8.625 8.625 0 100 17.25 8.625 8.625 0 000-17.25zM1.125 12C1.125 5.994 5.994 1.125 12 1.125S22.875 5.994 22.875 12 18.006 22.875 12 22.875 1.125 18.006 1.125 12z" fill="#04092A"/><path fill-rule="evenodd" clip-rule="evenodd" d="M12 5.625c.621 0 1.125.504 1.125 1.125v4.125H15a1.125 1.125 0 010 2.25h-3A1.125 1.125 0 0110.875 12V6.75c0-.621.504-1.125 1.125-1.125z" fill="#04092A"/></svg>