<svg width="24" height="24" fill="none" xmlns="http://www.w3.org/2000/svg"><path fill-rule="evenodd" clip-rule="evenodd" d="M1.1 6.445A2.845 2.845 0 013.945 3.6h16.11a2.845 2.845 0 011.55 5.23l-7.37 4.791-.105.068c-.527.343-.97.632-1.467.749a2.9 2.9 0 01-1.326 0c-.497-.117-.94-.406-1.467-.749l-.104-.068L2.394 8.83A2.845 2.845 0 011.1 6.445zM3.945 5.4a1.045 1.045 0 00-.57 1.92l7.371 4.792c.69.448.852.538 1.003.573a1.1 1.1 0 00.502 0c.15-.035.314-.125 1.003-.573l7.37-4.791a1.045 1.045 0 00-.569-1.921H3.945z" fill="#0050B2"/><path fill-rule="evenodd" clip-rule="evenodd" d="M2.5 7.1a.9.9 0 01.9.9v8.3c0 .575 0 .952.024 1.24.023.278.062.393.096.46a1.1 1.1 0 00.48.48c.067.034.182.073.46.096.288.023.665.024 1.24.024h12.6c.575 0 .952 0 1.24-.024.278-.023.393-.062.46-.096a1.1 1.1 0 00.48-.48c.034-.067.073-.182.096-.46.023-.288.024-.665.024-1.24V8a.9.9 0 011.8 0v8.335c0 .53 0 .982-.03 1.352-.032.39-.102.768-.286 1.13a2.9 2.9 0 01-1.267 1.267c-.362.184-.74.254-1.13.286-.37.03-.822.03-1.352.03H5.665c-.53 0-.981 0-1.352-.03-.389-.032-.768-.102-1.13-.286a2.9 2.9 0 01-1.267-1.267c-.184-.362-.254-.74-.286-1.13-.03-.37-.03-.822-.03-1.352V8a.9.9 0 01.9-.9z" fill="#0050B2"/></svg>