<svg width="256" height="93" fill="none" xmlns="http://www.w3.org/2000/svg"><path d="M256 0H0v93h256V0z" fill="#04092A"/><path d="M164.863 60.623c0-5.458 1.608-9.951 4.856-13.453 3.218-3.502 7.521-5.251 12.931-5.251 2.993 0 5.661.558 8.024 1.675 2.34 1.141 4.149 2.511 5.407 4.164 2.491 3.298 3.723 6.52 3.723 8.883h-3.395c0-.686-.354-2.236-1.659-4.569a17.308 17.308 0 00-2.416-3.25c-.956-.989-2.288-1.852-3.974-2.588-1.712-.736-3.623-1.093-5.71-1.093-4.405 0-7.875 1.45-10.415 4.367-2.568 2.92-3.85 6.625-3.85 11.118s1.282 8.197 3.85 11.114c2.54 2.921 6.01 4.393 10.415 4.393 2.087 0 3.998-.383 5.71-1.117 1.686-.738 3.018-1.597 3.974-2.588a15.926 15.926 0 002.416-3.248c1.305-2.337 1.659-3.86 1.659-4.544h3.395c0 2.36-1.232 5.583-3.723 8.857-1.258 1.65-3.067 3.02-5.407 4.138-2.363 1.14-5.031 1.697-8.024 1.697-5.41 0-9.713-1.75-12.931-5.253-3.248-3.477-4.856-7.97-4.856-13.452zm73.989 0c0-4.492-1.283-8.197-3.848-11.117-2.592-2.917-6.037-4.367-10.365-4.367s-7.775 1.45-10.341 4.367c-2.589 2.919-3.873 6.624-3.873 11.117 0 4.494 1.284 8.198 3.873 11.114 2.566 2.922 6.013 4.394 10.341 4.394 4.328 0 7.773-1.472 10.365-4.394 2.564-2.916 3.848-6.622 3.848-11.114zm-31.947 0c0-5.458 1.607-9.951 4.827-13.453 3.195-3.502 7.497-5.251 12.907-5.251 5.381 0 9.686 1.749 12.905 5.251 3.194 3.503 4.803 7.995 4.803 13.453 0 5.483-1.609 9.975-4.803 13.45-3.219 3.503-7.524 5.253-12.905 5.253-5.41 0-9.712-1.75-12.907-5.253-3.22-3.475-4.827-7.968-4.827-13.45zM51.375 76.844v-3.378c10.85-2.082 19.405-10.776 21.421-21.78h3.347c-2.089 12.846-12.09 23.002-24.768 25.158z" fill="#fff"/><path d="M70.268 41.658C67.962 30.43 58.12 21.965 46.36 21.965c-13.468 0-24.424 11.1-24.424 24.745 0 11.934 8.384 21.921 19.5 24.237v8.443c-15.7-2.415-27.782-16.129-27.782-32.68 0-18.253 14.671-33.1 32.706-33.1 16.334 0 29.868 12.193 32.286 28.048h-8.377z" fill="#FF004C"/><path d="M91.148 60.623c0-5.458 1.61-9.951 4.855-13.453 3.22-3.502 7.522-5.251 12.932-5.251 2.993 0 5.659.558 8.023 1.675 2.341 1.141 4.152 2.511 5.41 4.164 2.491 3.298 3.722 6.52 3.722 8.883h-3.395c0-.686-.353-2.236-1.66-4.569a17.297 17.297 0 00-2.414-3.25c-.958-.989-2.292-1.852-3.976-2.588-1.712-.736-3.622-1.093-5.71-1.093-4.403 0-7.875 1.45-10.416 4.367-2.567 2.92-3.847 6.625-3.847 11.118s1.28 8.197 3.847 11.114c2.541 2.921 6.013 4.393 10.416 4.393 2.088 0 3.998-.383 5.71-1.117 1.684-.738 3.018-1.597 3.976-2.588a15.916 15.916 0 002.414-3.248c1.307-2.337 1.66-3.86 1.66-4.544h3.395c0 2.36-1.231 5.583-3.722 8.857-1.258 1.65-3.069 3.02-5.41 4.138-2.364 1.14-5.03 1.697-8.023 1.697-5.41 0-9.712-1.75-12.932-5.253-3.245-3.477-4.855-7.97-4.855-13.452zm66.818 18.197l-19.822-18.147V78.82h-3.396V42.426h3.396v17.74l18.439-17.74h4.377L142.623 60.42l19.796 18.4h-4.453z" fill="#fff"/></svg>