<svg width="24" height="24" viewBox="0 0 24 24" fill="none" xmlns="http://www.w3.org/2000/svg">
<path d="M12.7056 18.1108C12.3151 18.5013 11.682 18.5013 11.2914 18.1108L8.4629 15.2822C8.07228 14.8916 8.07247 14.2582 8.46323 13.8677C8.85384 13.4773 9.48699 13.4774 9.8774 13.868L11.6449 15.6361C11.8402 15.8315 12.1569 15.8315 12.3522 15.6361L14.1197 13.868C14.5101 13.4774 15.1432 13.4773 15.5339 13.8677C15.9246 14.2582 15.9248 14.8916 15.5342 15.2822L12.7056 18.1108Z" fill="#76767A"/>
<path d="M11.2914 5.86789C11.6819 5.47737 12.3151 5.47737 12.7056 5.86789L15.5342 8.69643C15.9248 9.08705 15.9246 9.72049 15.5338 10.111C15.1432 10.5013 14.5101 10.5012 14.1197 10.1107L12.3521 8.34253C12.1569 8.14718 11.8402 8.14718 11.6449 8.34253L9.87739 10.1107C9.48698 10.5012 8.85383 10.5013 8.46322 10.111C8.07246 9.72049 8.07227 9.08705 8.46289 8.69643L11.2914 5.86789Z" fill="#76767A"/>
</svg>
